<?xml version="1.0" encoding="utf-8"?>
<!-- Generator: Adobe Illustrator 22.0.1, SVG Export Plug-In . SVG Version: 6.00 Build 0)  -->
<svg version="1.1" id="Layer_1" xmlns="http://www.w3.org/2000/svg" xmlns:xlink="http://www.w3.org/1999/xlink" x="0px" y="0px"
	 viewBox="0 0 134.1 135.3" style="enable-background:new 0 0 134.1 135.3;" xml:space="preserve">
<style type="text/css">
	.st0{fill:#FFFFFF;}
	.st1{display:none;}
	.st2{display:inline;}
	.st3{fill:#1FB68F;}
	.st4{fill:#333333;}
	.st5{display:inline;fill:#1FB68F;}
	.st6{display:inline;fill:#333333;}
</style>
<circle class="st0" cx="67.1" cy="67.5" r="67.1"/>
<g class="st1">
	<g class="st2">
		<circle class="st3" cx="52" cy="87.9" r="6.3"/>
	</g>
	<g class="st2">
		<circle class="st3" cx="84.2" cy="87.9" r="6.3"/>
	</g>
	<g class="st2">
		<circle class="st3" cx="68.1" cy="87.9" r="6.3"/>
	</g>
	<g class="st2">
		<circle class="st3" cx="67.7" cy="35.4" r="6.3"/>
	</g>
	<g class="st2">
		<circle class="st3" cx="75.9" cy="74.6" r="6.3"/>
	</g>
	<g class="st2">
		<circle class="st3" cx="59.8" cy="62" r="6.3"/>
	</g>
	<g class="st2">
		<rect x="36.7" y="100.5" class="st4" width="59.7" height="4"/>
	</g>
</g>
<g class="st1">
	<path class="st5" d="M59,58.1c3.6,0,6.6,2.9,6.6,6.6c0,3.6-2.9,6.6-6.6,6.6c-3.6,0-6.6-2.9-6.6-6.6C52.5,61.1,55.4,58.1,59,58.1z
		 M73.7,64.7c0,3.6,2.9,6.6,6.6,6.6c3.6,0,6.6-2.9,6.6-6.6c0-3.6-2.9-6.6-6.6-6.6C76.6,58.1,73.7,61.1,73.7,64.7z M69.6,60.6
		c3.6,0,6.6-2.9,6.6-6.6c0-3.6-2.9-6.6-6.6-6.6c-3.6,0-6.6,2.9-6.6,6.6C63.1,57.7,66,60.6,69.6,60.6z M69.6,81.9
		c3.6,0,6.6-2.9,6.6-6.6c0-3.6-2.9-6.6-6.6-6.6c-3.6,0-6.6,2.9-6.6,6.6C63.1,78.9,66,81.9,69.6,81.9z"/>
	<path class="st6" d="M69.6,36.9c-15.3,0-27.8,12.4-27.8,27.8c0,6.9,2.5,13.1,6.6,18L36.4,94.7l3.2,3.2l12.1-12.1
		c4.8,4.1,11.1,6.6,18,6.6C85,92.5,97.4,80,97.4,64.7C97.4,49.3,85,36.9,69.6,36.9z M86.4,81.4c-4.5,4.5-10.4,6.9-16.7,6.9
		c-6.3,0-12.3-2.5-16.7-6.9C48.5,76.9,46,71,46,64.7c0-6.3,2.5-12.3,6.9-16.7S63.3,41,69.6,41c6.3,0,12.3,2.5,16.7,6.9
		c4.5,4.5,6.9,10.4,6.9,16.7S90.8,76.9,86.4,81.4z"/>
</g>
<g>
	<g>
		<path class="st4" d="M50.6,59.8l-1.2-1.7l1.2-1.6L35.4,44.9l13.2-11.5L46,30.3L30.8,43.4l1.4,1.6h-2.1v24.9h2.1l1.2,1.7L50.6,59.8
			z M45.9,58L34.2,66V49.2L45.9,58z M100.4,71l-4.7-20.3L83.6,63.4L82.1,62L80,62.1L78.7,32l4.1-0.2l1.1,25.3l11.5-12l1.5,1.4l2-0.5
			l5.6,24L100.4,71z M86.6,96.3l-0.9,1.8l0.3,2L51,104.6l-0.5-4.1L78.8,97l-14-7.2l1.9-3.7L86.6,96.3z"/>
		<path class="st3" d="M32.2,38.4c3.6,0,6.6,2.9,6.6,6.6c0,3.6-2.9,6.6-6.6,6.6c-3.6,0-6.6-2.9-6.6-6.6
			C25.6,41.4,28.5,38.4,32.2,38.4z M40.8,31.9c0,3.6,2.9,6.6,6.6,6.6s6.6-2.9,6.6-6.6s-2.9-6.6-6.6-6.6S40.8,28.3,40.8,31.9z
			 M25.6,69.9c0,3.6,2.9,6.6,6.6,6.6c3.6,0,6.6-2.9,6.6-6.6c0-3.6-2.9-6.6-6.6-6.6C28.5,63.3,25.6,66.2,25.6,69.9z M90.3,46.5
			c0,3.6,2.9,6.6,6.6,6.6c3.6,0,6.6-2.9,6.6-6.6c0-3.6-2.9-6.6-6.6-6.6C93.3,40,90.3,42.9,90.3,46.5z M49.5,64.7
			c3.6,0,6.6-2.9,6.6-6.6s-2.9-6.6-6.6-6.6c-3.6,0-6.6,2.9-6.6,6.6S45.9,64.7,49.5,64.7z M102.5,77.1c3.6,0,6.6-2.9,6.6-6.6
			c0-3.6-2.9-6.6-6.6-6.6c-3.6,0-6.6,2.9-6.6,6.6C95.9,74.2,98.8,77.1,102.5,77.1z M82.1,68.6c3.6,0,6.6-2.9,6.6-6.6
			c0-3.6-2.9-6.6-6.6-6.6s-6.6,2.9-6.6,6.6C75.5,65.6,78.5,68.6,82.1,68.6z M80.7,38.4c3.6,0,6.6-2.9,6.6-6.6s-2.9-6.6-6.6-6.6
			c-3.6,0-6.6,2.9-6.6,6.6S77.1,38.4,80.7,38.4z M50.8,109.2c3.6,0,6.6-2.9,6.6-6.6c0-3.6-2.9-6.6-6.6-6.6s-6.6,2.9-6.6,6.6
			C44.2,106.2,47.2,109.2,50.8,109.2z M65.8,94.5c3.6,0,6.6-2.9,6.6-6.6s-2.9-6.6-6.6-6.6c-3.6,0-6.6,2.9-6.6,6.6
			S62.1,94.5,65.8,94.5z M85.7,104.7c3.6,0,6.6-2.9,6.6-6.6c0-3.6-2.9-6.6-6.6-6.6c-3.6,0-6.6,2.9-6.6,6.6
			C79.1,101.8,82.1,104.7,85.7,104.7z"/>
	</g>
</g>
<g class="st1">
	<g class="st2">
		<path class="st4" d="M79,106.1l-4.5-35.7L38.2,84.9l1.7,13.6l8.3,1.6l-3.2,8.4l3.9,1.5l3.4-9.1L79,106.1z M42.7,87.6L71,76.2
			l3.1,24.7l-30.5-5.9L42.7,87.6z M49.6,30.4L33.1,41.9l1.2,1.7l-2.1-0.2l-2.6,24.7l2.1,0.2l1,1.8l18.5-9.8l-1-1.8l1.4-1.5l-14-13.1
			l14.4-10L49.6,30.4z M35.9,47.9L46.6,58l-12.5,6.6L35.9,47.9z M100,64.5L84,40.9l-0.1,15.7l-4.1,0l0.1-22.4l2.1,0l1.7-1.2
			l19.7,29.1L100,64.5z"/>
		<path class="st3" d="M89.2,101.6l-8.7-1.7l0.8-4.1l8.7,1.7L89.2,101.6z M88.1,88.2l-0.5-4.1l-8.3,1.1l0.5,4.1L88.1,88.2z M87,74.5
			l-1.8-3.7l-8,3.8l1.8,3.7L87,74.5z M27.8,42.9c-0.4,3.6,2.2,6.8,5.8,7.2c3.6,0.4,6.8-2.2,7.2-5.8s-2.2-6.8-5.8-7.2
			S28.2,39.3,27.8,42.9z M44.3,31.4c-0.4,3.6,2.2,6.8,5.8,7.2c3.6,0.4,6.8-2.2,7.2-5.8c0.4-3.6-2.2-6.8-5.8-7.2
			C47.9,25.2,44.7,27.8,44.3,31.4z M25.1,67.6c-0.4,3.6,2.2,6.8,5.8,7.2c3.6,0.4,6.8-2.2,7.2-5.8c0.4-3.6-2.2-6.8-5.8-7.2
			C28.8,61.4,25.5,64,25.1,67.6z M49.4,65c3.6,0.4,6.8-2.2,7.2-5.8c0.4-3.6-2.2-6.8-5.8-7.2c-3.6-0.4-6.8,2.2-7.2,5.8
			C43.2,61.4,45.8,64.6,49.4,65z M107.5,60.4c-1.6-3.2-5.6-4.5-8.8-2.9s-4.5,5.6-2.9,8.8c1.6,3.2,5.6,4.5,8.8,2.9
			C107.9,67.5,109.2,63.6,107.5,60.4z M87.7,53.6c-1.6-3.2-5.6-4.5-8.8-2.9s-4.5,5.6-2.9,8.8s5.6,4.5,8.8,2.9
			C88,60.8,89.3,56.9,87.7,53.6z M87.8,31.2c-1.6-3.2-5.6-4.5-8.8-2.9c-3.2,1.6-4.5,5.6-2.9,8.8c1.6,3.2,5.6,4.5,8.8,2.9
			S89.4,34.5,87.8,31.2z"/>
	</g>
</g>
</svg>
