<?xml version="1.0" encoding="utf-8"?>
<!-- Generator: Adobe Illustrator 22.0.1, SVG Export Plug-In . SVG Version: 6.00 Build 0)  -->
<svg version="1.1" id="Layer_1" xmlns="http://www.w3.org/2000/svg" xmlns:xlink="http://www.w3.org/1999/xlink" x="0px" y="0px"
	 viewBox="0 0 134.1 135.3" style="enable-background:new 0 0 134.1 135.3;" xml:space="preserve">
<style type="text/css">
	.st0{display:none;}
	.st1{display:inline;}
	.st2{fill:#1FB68F;}
	.st3{fill:#333333;}
	.st4{display:inline;fill:#1FB68F;}
	.st5{display:inline;fill:#333333;}
</style>
<g class="st0">
	<g class="st1">
		<circle class="st2" cx="43" cy="100" r="10.1"/>
	</g>
	<g class="st1">
		<circle class="st2" cx="94.4" cy="100" r="10.1"/>
	</g>
	<g class="st1">
		<circle class="st2" cx="68.7" cy="100" r="10.1"/>
	</g>
	<g class="st1">
		<circle class="st2" cx="68.1" cy="16" r="10.1"/>
	</g>
	<g class="st1">
		<circle class="st2" cx="81.3" cy="78.7" r="10.1"/>
	</g>
	<g class="st1">
		<circle class="st2" cx="55.5" cy="58.6" r="10.1"/>
	</g>
	<g class="st1">
		<rect x="18.5" y="120.2" class="st3" width="95.5" height="6.3"/>
	</g>
</g>
<g class="st0">
	<path class="st4" d="M54.2,52.4c5.8,0,10.5,4.7,10.5,10.5S60,73.4,54.2,73.4s-10.5-4.7-10.5-10.5S48.4,52.4,54.2,52.4z M77.7,62.9
		c0,5.8,4.7,10.5,10.5,10.5s10.5-4.7,10.5-10.5S94,52.4,88.2,52.4S77.7,57.1,77.7,62.9z M71.2,56.4c5.8,0,10.5-4.7,10.5-10.5
		S77,35.4,71.2,35.4s-10.5,4.7-10.5,10.5S65.4,56.4,71.2,56.4z M71.2,90.3c5.8,0,10.5-4.7,10.5-10.5c0-5.8-4.7-10.5-10.5-10.5
		s-10.5,4.7-10.5,10.5C60.7,85.6,65.4,90.3,71.2,90.3z"/>
	<path class="st5" d="M71.2,18.5c-24.5,0-44.4,19.9-44.4,44.4c0,11,4,21,10.6,28.7L18,110.9l5.1,5.1l19.3-19.3
		c7.7,6.6,17.8,10.6,28.7,10.6c24.5,0,44.4-19.9,44.4-44.4C115.6,38.4,95.7,18.5,71.2,18.5z M97.9,89.6
		c-7.1,7.1-16.6,11.1-26.7,11.1s-19.6-3.9-26.7-11.1C37.3,82.5,33.4,73,33.4,62.9c0-10.1,3.9-19.6,11.1-26.7s16.6-11.1,26.7-11.1
		S90.8,29,97.9,36.1c7.1,7.1,11.1,16.6,11.1,26.7S105.1,82.5,97.9,89.6z"/>
</g>
<g>
	<g>
		<path class="st3" d="M40.8,55.2L39,52.4l2-2.6L16.5,31.3L37.7,13l-4.3-5L9.1,29l2.2,2.5H8v39.7h3.3l1.9,2.7L40.8,55.2z M33.3,52.3
			L14.6,65V38.1L33.3,52.3z M120.4,73l-7.5-32.4L93.5,60.9l-2.4-2.3l-3.3,0.1l-2.2-48.1l6.6-0.3L94,50.8l18.4-19.1l2.4,2.3l3.2-0.7
			l8.9,38.4L120.4,73z M98.4,113.5l-1.5,2.9l0.4,3.3l-55.8,7.1l-0.8-6.6l45.2-5.8L63.5,103l3-5.9L98.4,113.5z"/>
		<path class="st2" d="M11.3,21c5.8,0,10.5,4.7,10.5,10.5s-4.7,10.5-10.5,10.5S0.8,37.3,0.8,31.5S5.5,21,11.3,21z M25,10.5
			C25,16.3,29.7,21,35.5,21S46,16.3,46,10.5S41.3,0,35.5,0S25,4.7,25,10.5z M0.8,71.2c0,5.8,4.7,10.5,10.5,10.5S21.8,77,21.8,71.2
			c0-5.8-4.7-10.5-10.5-10.5S0.8,65.4,0.8,71.2z M104.3,33.9c0,5.8,4.7,10.5,10.5,10.5c5.8,0,10.5-4.7,10.5-10.5
			s-4.7-10.5-10.5-10.5C109,23.4,104.3,28.1,104.3,33.9z M39,62.9c5.8,0,10.5-4.7,10.5-10.5S44.8,41.9,39,41.9s-10.5,4.7-10.5,10.5
			S33.2,62.9,39,62.9z M123.6,82.8c5.8,0,10.5-4.7,10.5-10.5s-4.7-10.5-10.5-10.5s-10.5,4.7-10.5,10.5S117.8,82.8,123.6,82.8z
			 M91.1,69.1c5.8,0,10.5-4.7,10.5-10.5s-4.7-10.5-10.5-10.5c-5.8,0-10.5,4.7-10.5,10.5S85.3,69.1,91.1,69.1z M88.9,21
			c5.8,0,10.5-4.7,10.5-10.5S94.7,0,88.9,0c-5.8,0-10.5,4.7-10.5,10.5S83.1,21,88.9,21z M41.1,134c5.8,0,10.5-4.7,10.5-10.5
			S46.8,113,41.1,113s-10.5,4.7-10.5,10.5S35.3,134,41.1,134z M65,110.5c5.8,0,10.5-4.7,10.5-10.5c0-5.8-4.7-10.5-10.5-10.5
			c-5.8,0-10.5,4.7-10.5,10.5C54.5,105.9,59.2,110.5,65,110.5z M96.8,126.9c5.8,0,10.5-4.7,10.5-10.5s-4.7-10.5-10.5-10.5
			c-5.8,0-10.5,4.7-10.5,10.5S91.1,126.9,96.8,126.9z"/>
	</g>
</g>
<g class="st0">
	<g class="st1">
		<path class="st3" d="M86.1,129.1L78.9,72l-58,23.3l2.8,21.8l13.2,2.5l-5,13.4l6.2,2.3l5.4-14.5L86.1,129.1z M28.1,99.5l45.3-18.2
			l5,39.6l-48.8-9.4L28.1,99.5z M39.2,8.2L12.8,26.5l1.9,2.7l-3.3-0.4L7.2,68.3l3.3,0.4l1.5,2.9l29.5-15.7L40,53l2.3-2.4l-22.3-21
			l23-15.9L39.2,8.2z M17.3,36.1l17.1,16.1l-20,10.6L17.3,36.1z M119.7,62.6L94.1,24.9L94,50l-6.6,0l0.2-35.8l3.3,0l2.7-1.9
			l31.6,46.6L119.7,62.6z"/>
		<path class="st2" d="M102.5,122l-13.8-2.7l1.2-6.5l13.8,2.7L102.5,122z M100.8,100.4l-0.8-6.6l-13.3,1.7l0.8,6.6L100.8,100.4z
			 M99,78.5l-2.8-6l-12.7,6l2.8,6L99,78.5z M4.3,28.1C3.7,33.8,7.8,39,13.6,39.6s10.9-3.6,11.5-9.3s-3.6-10.9-9.3-11.5
			S4.9,22.3,4.3,28.1z M30.6,9.8c-0.6,5.8,3.6,10.9,9.3,11.5s10.9-3.6,11.5-9.3c0.6-5.8-3.6-10.9-9.3-11.5S31.2,4,30.6,9.8z
			 M0.1,67.5c-0.6,5.8,3.6,10.9,9.3,11.5s10.9-3.6,11.5-9.3c0.6-5.8-3.6-10.9-9.3-11.5C5.8,57.6,0.7,61.8,0.1,67.5z M38.9,63.4
			c5.8,0.6,10.9-3.6,11.5-9.3c0.6-5.8-3.6-10.9-9.3-11.5c-5.8-0.6-10.9,3.6-11.5,9.3C29,57.6,33.1,62.8,38.9,63.4z M131.8,56
			c-2.6-5.2-8.9-7.2-14.1-4.6c-5.2,2.6-7.2,8.9-4.6,14.1s8.9,7.2,14.1,4.6C132.3,67.5,134.4,61.2,131.8,56z M100,45.3
			c-2.6-5.2-8.9-7.2-14.1-4.6c-5.2,2.6-7.2,8.9-4.6,14.1s8.9,7.2,14.1,4.6C100.6,56.7,102.7,50.4,100,45.3z M100.2,9.4
			c-2.6-5.2-8.9-7.2-14.1-4.6c-5.2,2.6-7.2,8.9-4.6,14.1c2.6,5.2,8.9,7.2,14.1,4.6C100.8,20.9,102.8,14.6,100.2,9.4z"/>
	</g>
</g>
</svg>
