<svg id="Layer_1" data-name="Layer 1" xmlns="http://www.w3.org/2000/svg" xmlns:xlink="http://www.w3.org/1999/xlink" viewBox="0 0 3722.4 1260.76"><defs><style>.cls-1{fill:none;}.cls-2{clip-path:url(#clip-path);}.cls-3{fill:#0d0f22;}.cls-4{fill:#0c1733;}.cls-5{fill:url(#New_Pattern_7);}</style><clipPath id="clip-path"><rect class="cls-1" width="576" height="576"/></clipPath><pattern id="New_Pattern_7" data-name="New Pattern 7" width="576" height="576" patternUnits="userSpaceOnUse" viewBox="0 0 576 576"><rect class="cls-1" width="576" height="576"/><g class="cls-2"><path class="cls-3" d="M151.75,177.06a2.2,2.2,0,0,1,.17.91h0a2.2,2.2,0,0,1-2.29,2.11l-7.25-.27-5,5.27a2.38,2.38,0,0,1-.77.52,2.2,2.2,0,0,1-2.87-1.21l-8.24-20.25-8.28,20.25a2.26,2.26,0,0,1-.53.77h0a2.2,2.2,0,0,1-3.11-.08l-5-5.27-7.25.27a2.2,2.2,0,0,1-2.12-3l8.12-19.85a5.57,5.57,0,0,0,3,2.12c3.07.84,3.3.71,5.33,2.77a5.46,5.46,0,0,0,6.84.8,5.49,5.49,0,0,1,5.86,0,5.46,5.46,0,0,0,6.84-.8c2.1-2.14,2.34-2,5.34-2.77a5.7,5.7,0,0,0,3.06-2.15l8.09,19.88Zm-35.07-37.53a8.81,8.81,0,1,1,8.81,8.81A8.8,8.8,0,0,1,116.68,139.53Z"/><path d="M149.52,136.32c-1,3.91-1,3.37,0,7.27a5.73,5.73,0,0,1-1.44,5.45c-2.81,2.86-2.54,2.39-3.57,6.3a5.6,5.6,0,0,1-3.92,4c-3,.81-3.24.63-5.34,2.77a5.46,5.46,0,0,1-6.84.8,5.49,5.49,0,0,0-5.86,0,5.46,5.46,0,0,1-6.84-.8c-2-2.06-2.26-1.93-5.33-2.77a5.59,5.59,0,0,1-3.92-4c-1-3.91-.77-3.44-3.58-6.3a5.71,5.71,0,0,1-1.44-5.44c1-3.92,1-3.37,0-7.27a5.7,5.7,0,0,1,1.44-5.45c2.81-2.86,2.54-2.39,3.57-6.3a5.59,5.59,0,0,1,3.92-4c3.84-1,3.38-.78,6.18-3.64a5.49,5.49,0,0,1,5.36-1.46c3.84,1.05,3.31,1.05,7.15,0a5.51,5.51,0,0,1,5.34,1.46c2.81,2.86,2.35,2.59,6.19,3.64a5.59,5.59,0,0,1,3.92,4c1,3.91.76,3.44,3.57,6.29a5.71,5.71,0,0,1,1.43,5.45Zm-10.82,3.21a13.21,13.21,0,1,0-13.21,13.21A13.21,13.21,0,0,0,138.7,139.53Z"/><path class="cls-3" d="M8.72,466a2.34,2.34,0,0,1,.17.94h0a2.28,2.28,0,0,1-2.37,2.19L-1,468.9l-5.18,5.46a2.27,2.27,0,0,1-.79.54,2.29,2.29,0,0,1-3-1.25l-8.54-21-8.58,21a2.44,2.44,0,0,1-.55.8h0a2.3,2.3,0,0,1-3.23-.09L-36,468.89l-7.52.29a2.34,2.34,0,0,1-.94-.17,2.28,2.28,0,0,1-1.26-3l8.42-20.58a5.83,5.83,0,0,0,3.15,2.2c3.19.87,3.42.73,5.53,2.87a5.68,5.68,0,0,0,7.1.83,5.63,5.63,0,0,1,6.06,0,5.68,5.68,0,0,0,7.1-.83c2.18-2.22,2.43-2,5.53-2.88a5.78,5.78,0,0,0,3.18-2.23L8.72,466Zm-36.36-38.92A9.13,9.13,0,0,1-18.51,418a9.13,9.13,0,0,1,9.13,9.13,9.14,9.14,0,0,1-9.13,9.14A9.13,9.13,0,0,1-27.64,427.12Z"/><path d="M6.41,423.8c-1.07,4.05-1.07,3.49,0,7.54A5.9,5.9,0,0,1,4.92,437c-2.91,3-2.63,2.48-3.7,6.53a5.8,5.8,0,0,1-4.06,4.14c-3.11.85-3.36.66-5.54,2.88a5.68,5.68,0,0,1-7.1.83,5.63,5.63,0,0,0-6.06,0,5.68,5.68,0,0,1-7.1-.83c-2.11-2.14-2.34-2-5.53-2.87a5.8,5.8,0,0,1-4.06-4.14c-1.08-4.06-.8-3.57-3.71-6.53a5.92,5.92,0,0,1-1.49-5.65c1.07-4.06,1.07-3.49,0-7.54a5.92,5.92,0,0,1,1.49-5.65c2.91-3,2.63-2.47,3.7-6.52a5.8,5.8,0,0,1,4.06-4.14c4-1.09,3.5-.81,6.42-3.77a5.66,5.66,0,0,1,5.55-1.52c4,1.09,3.43,1.09,7.41,0a5.69,5.69,0,0,1,5.53,1.51c2.93,3,2.45,2.69,6.43,3.77a5.83,5.83,0,0,1,4.06,4.14c1.07,4.05.79,3.57,3.7,6.53a5.92,5.92,0,0,1,1.49,5.65Zm-11.22,3.32a13.7,13.7,0,0,0-13.7-13.7,13.7,13.7,0,0,0-13.7,13.7,13.7,13.7,0,0,0,13.7,13.7A13.7,13.7,0,0,0-4.81,427.12Z"/><path class="cls-3" d="M303.48,292.41c0,15.26-15.21,27.62-34,27.62a40.37,40.37,0,0,1-14.26-2.57,30.4,30.4,0,0,1-18.67,6.82,1,1,0,0,1-1-.63,1.08,1.08,0,0,1,.2-1.16c.07-.07,5.62-6,7.28-12.72a24.51,24.51,0,0,1-7.57-17.36c0-15.25,15.22-27.62,34-27.62S303.48,277.16,303.48,292.41ZM274.43,286h0a3.56,3.56,0,1,0,3.56-3.56A3.56,3.56,0,0,0,274.43,286ZM261,282.48a3.56,3.56,0,1,0,3.56,3.56,3.56,3.56,0,0,0-3.56-3.56Zm21.81,18.71a2.14,2.14,0,0,0-3.26-2.76,14.44,14.44,0,0,1-1.35,1.36,13.32,13.32,0,0,1-18.78-1.35,2,2,0,0,0-.19-.22,2.12,2.12,0,1,0-3,3A15.81,15.81,0,0,0,258,303a17.57,17.57,0,0,0,24.78-1.83Z"/><path d="M274.43,286h0A3.56,3.56,0,1,1,278,289.6,3.56,3.56,0,0,1,274.43,286ZM261,289.6a3.56,3.56,0,1,1,3.56-3.56A3.56,3.56,0,0,1,261,289.6Zm21.55,8.59h0a2.11,2.11,0,0,1,.25,3,17.57,17.57,0,0,1-26.61,0,2.2,2.2,0,0,1-.2-.23,2.12,2.12,0,1,1,3.42-2.52,13.3,13.3,0,0,0,20.13,0,2.14,2.14,0,0,1,3-.24Z"/><path class="cls-3" d="M15.48,148.41c0,15.26-15.21,27.62-34,27.62a40.37,40.37,0,0,1-14.26-2.57,30.4,30.4,0,0,1-18.67,6.82,1,1,0,0,1-1-.63,1.08,1.08,0,0,1,.2-1.16c.07-.07,5.62-6,7.28-12.72a24.51,24.51,0,0,1-7.57-17.36c0-15.25,15.22-27.62,34-27.62S15.48,133.16,15.48,148.41Zm-29-6.37h0A3.56,3.56,0,0,0-10,145.6,3.56,3.56,0,0,0-6.45,142,3.56,3.56,0,0,0-10,138.48,3.56,3.56,0,0,0-13.57,142ZM-27,138.48A3.56,3.56,0,0,0-30.57,142,3.56,3.56,0,0,0-27,145.6,3.56,3.56,0,0,0-23.45,142,3.56,3.56,0,0,0-27,138.48ZM-5.2,157.19a2.14,2.14,0,0,0-.25-3,2.14,2.14,0,0,0-3,.22,14.44,14.44,0,0,1-1.35,1.36,13.32,13.32,0,0,1-18.78-1.35,2,2,0,0,0-.19-.22,2.12,2.12,0,0,0-3,0,2.11,2.11,0,0,0,0,3A15.81,15.81,0,0,0-30,159,17.57,17.57,0,0,0-5.2,157.19Z"/><path d="M-13.57,142h0A3.56,3.56,0,0,1-10,138.48,3.56,3.56,0,0,1-6.45,142,3.56,3.56,0,0,1-10,145.6,3.56,3.56,0,0,1-13.57,142ZM-27,145.6A3.56,3.56,0,0,1-30.57,142,3.56,3.56,0,0,1-27,138.48,3.56,3.56,0,0,1-23.45,142,3.56,3.56,0,0,1-27,145.6Zm21.55,8.59h0a2.11,2.11,0,0,1,.25,3A17.56,17.56,0,0,1-7,159a17.57,17.57,0,0,1-24.78-1.83A2.2,2.2,0,0,1-32,157a2.13,2.13,0,0,1,.45-3,2.13,2.13,0,0,1,3,.45,13.43,13.43,0,0,0,1.36,1.36,13.31,13.31,0,0,0,18.77-1.37,2.14,2.14,0,0,1,3-.24Z"/><path class="cls-3" d="M451.27,296.48a42.08,42.08,0,0,1-75.56,0,4.34,4.34,0,0,1,0-3.88c7.2-14,21.46-23.56,37.78-23.56a42.6,42.6,0,0,1,37.78,23.56A4.28,4.28,0,0,1,451.27,296.48Zm-18.66-1.92a19.11,19.11,0,1,0-19.12,19.1h0A19.1,19.1,0,0,0,432.61,294.56Z"/><path d="M425.8,297.84a12.66,12.66,0,0,0-15.67-15.55,6.35,6.35,0,0,1-8.88,8.89l0,.07a12.72,12.72,0,1,0,24.57,6.59Z"/><path class="cls-3" d="M307.27,8.48A42.6,42.6,0,0,1,269.49,32,42.59,42.59,0,0,1,231.71,8.48a4.34,4.34,0,0,1,0-3.88c7.2-14,21.46-23.56,37.78-23.56A42.6,42.6,0,0,1,307.27,4.6,4.28,4.28,0,0,1,307.27,8.48ZM288.61,6.56a19.11,19.11,0,1,0-19.12,19.1h0A19.1,19.1,0,0,0,288.61,6.56Z"/><path d="M281.8,9.84A12.66,12.66,0,0,0,266.13-5.71a6.36,6.36,0,0,1,0,7.54,6.36,6.36,0,0,1-8.88,1.35l0,.07A12.72,12.72,0,1,0,281.8,9.84Z"/><path class="cls-3" d="M118.05,298.79a5.32,5.32,0,0,0,5.32-5.31V281.79H147.8a7.44,7.44,0,0,1,7.44,7.44V293l10.62-6.13a4.24,4.24,0,0,0,1.55-5.8l-10.62-18.41h0a4.24,4.24,0,0,0-5.8-1.55l-13.73,7.93H123.69a8.55,8.55,0,0,0-4.51,1.28l-4.44,2.78a4.21,4.21,0,0,0-2,3.6v16.77A5.31,5.31,0,0,0,118.05,298.79Z"/><path d="M94.2,326.41A4.25,4.25,0,0,0,100,328L113.73,320h18.13a8.51,8.51,0,0,0,8.5-8.5h2.13a4.25,4.25,0,0,0,4.25-4.25v-8.5h1.07A3.18,3.18,0,0,0,151,295.6v-6.39A3.19,3.19,0,0,0,147.8,286H127.61v7.44a9.56,9.56,0,0,1-19.12,0V277.33l-8.61,5.18a8.48,8.48,0,0,0-4.13,7.28v6.28L85.12,302.2h0A4.24,4.24,0,0,0,83.57,308Z"/><path class="cls-3" d="M406.05,10.79a5.32,5.32,0,0,0,5.32-5.31V-6.21H435.8a7.44,7.44,0,0,1,7.44,7.44V5l10.62-6.13a4.24,4.24,0,0,0,1.55-5.8L444.79-25.33h0a4.24,4.24,0,0,0-5.8-1.55l-13.73,7.93H411.69a8.55,8.55,0,0,0-4.51,1.28l-4.44,2.78a4.21,4.21,0,0,0-2,3.6V5.48A5.31,5.31,0,0,0,406.05,10.79Z"/><path d="M382.2,38.41A4.25,4.25,0,0,0,388,40L401.73,32h18.13a8.51,8.51,0,0,0,8.5-8.5h2.13a4.25,4.25,0,0,0,4.25-4.25v-8.5h1.07A3.18,3.18,0,0,0,439,7.6V1.21A3.19,3.19,0,0,0,435.8-2H415.61V5.48a9.56,9.56,0,0,1-19.12,0V-10.67l-8.61,5.18a8.48,8.48,0,0,0-4.13,7.28V8.07L373.12,14.2h0A4.24,4.24,0,0,0,371.57,20Z"/><path class="cls-3" d="M303.48,442.78a4.26,4.26,0,0,1-4.24,4.26H295v8.5a8.5,8.5,0,0,1-8.5,8.49H278v8.5H244V449a25.46,25.46,0,0,1,17-44.45h9.83a27.61,27.61,0,0,1,22.58,11.71c3.27,4.65,6.93,18.54,9.71,24.8A4.24,4.24,0,0,1,303.48,442.78Zm-17-17a6.37,6.37,0,0,0-6.37-6.37h-.39a7.54,7.54,0,0,0-.51-1.12,6.29,6.29,0,0,0-8.6-2.28,6.43,6.43,0,0,0-2-2,6.34,6.34,0,0,0-8.74,2,6.25,6.25,0,0,0-3.12-.85,6.38,6.38,0,0,0-6.38,6.37,6.36,6.36,0,0,0-2.08,12.37c0,.13,0,.25,0,.38a6.37,6.37,0,0,0,6.37,6.37,6.18,6.18,0,0,0,2.13-.39V447h8.49v-6.77a6.18,6.18,0,0,0,2.13.39,6.37,6.37,0,0,0,6.37-6.37,6.22,6.22,0,0,0-.39-2.13h6.77A6.37,6.37,0,0,0,286.49,425.79Z"/><path d="M248.29,433.91c0,.13,0,.25,0,.38a6.37,6.37,0,0,0,6.37,6.37,6.18,6.18,0,0,0,2.13-.39V447h8.49v-6.77a6.18,6.18,0,0,0,2.13.39,6.37,6.37,0,0,0,6.37-6.37,6.22,6.22,0,0,0-.39-2.13h6.77a6.37,6.37,0,0,0,0-12.74h-.39a7.54,7.54,0,0,0-.51-1.12,6.29,6.29,0,0,0-8.6-2.28,6.43,6.43,0,0,0-2-2,6.34,6.34,0,0,0-8.74,2,6.25,6.25,0,0,0-3.12-.85,6.38,6.38,0,0,0-6.38,6.37,6.36,6.36,0,0,0-2.08,12.37Z"/><path class="cls-3" d="M15.48,298.78A4.26,4.26,0,0,1,11.24,303H7v8.5A8.5,8.5,0,0,1-1.51,320H-10v8.5H-44V305a25.39,25.39,0,0,1-8.5-19A25.5,25.5,0,0,1-27,260.55h9.83A27.61,27.61,0,0,1,5.41,272.26c3.27,4.65,6.93,18.54,9.71,24.8A4.24,4.24,0,0,1,15.48,298.78Zm-17-17a6.37,6.37,0,0,0-6.37-6.37h-.39a7.54,7.54,0,0,0-.51-1.12,6.29,6.29,0,0,0-8.6-2.28,6.43,6.43,0,0,0-2-2,6.34,6.34,0,0,0-8.74,2,6.25,6.25,0,0,0-3.12-.85,6.38,6.38,0,0,0-6.38,6.37,6.36,6.36,0,0,0-6,4.29,6.35,6.35,0,0,0,3.94,8.08c0,.13,0,.25,0,.38a6.37,6.37,0,0,0,6.37,6.37,6.18,6.18,0,0,0,2.13-.39V303h8.49v-6.77a6.18,6.18,0,0,0,2.13.39,6.37,6.37,0,0,0,6.37-6.37,6.22,6.22,0,0,0-.39-2.13h6.77A6.37,6.37,0,0,0-1.51,281.79Z"/><path d="M-39.71,289.91c0,.13,0,.25,0,.38a6.37,6.37,0,0,0,6.37,6.37,6.18,6.18,0,0,0,2.13-.39V303h8.49v-6.77a6.18,6.18,0,0,0,2.13.39,6.37,6.37,0,0,0,6.37-6.37,6.22,6.22,0,0,0-.39-2.13h6.77a6.37,6.37,0,0,0,6.37-6.37,6.37,6.37,0,0,0-6.37-6.37h-.39a7.54,7.54,0,0,0-.51-1.12,6.29,6.29,0,0,0-8.6-2.28,6.43,6.43,0,0,0-2-2,6.34,6.34,0,0,0-8.74,2,6.25,6.25,0,0,0-3.12-.85,6.38,6.38,0,0,0-6.38,6.37,6.36,6.36,0,0,0-6,4.29A6.35,6.35,0,0,0-39.71,289.91Z"/><path class="cls-3" d="M584.72,466a2.34,2.34,0,0,1,.17.94h0a2.28,2.28,0,0,1-2.37,2.19L575,468.9l-5.18,5.46a2.28,2.28,0,0,1-3.77-.71l-8.54-21-8.58,21a2.44,2.44,0,0,1-.55.8h0a2.3,2.3,0,0,1-3.23-.09L540,468.89l-7.52.29a2.34,2.34,0,0,1-.94-.17,2.28,2.28,0,0,1-1.26-3l8.42-20.58a5.83,5.83,0,0,0,3.15,2.2c3.19.87,3.42.73,5.53,2.87a5.68,5.68,0,0,0,7.1.83,5.63,5.63,0,0,1,6.06,0,5.68,5.68,0,0,0,7.1-.83c2.18-2.22,2.43-2,5.53-2.88a5.78,5.78,0,0,0,3.18-2.23L584.72,466Zm-36.36-38.92a9.13,9.13,0,1,1,9.13,9.14A9.13,9.13,0,0,1,548.36,427.12Z"/><path d="M582.41,423.8c-1.07,4.05-1.07,3.49,0,7.54a5.9,5.9,0,0,1-1.49,5.64c-2.91,3-2.63,2.48-3.7,6.53a5.8,5.8,0,0,1-4.06,4.14c-3.11.85-3.36.66-5.54,2.88a5.68,5.68,0,0,1-7.1.83,5.63,5.63,0,0,0-6.06,0,5.68,5.68,0,0,1-7.1-.83c-2.11-2.14-2.34-2-5.53-2.87a5.8,5.8,0,0,1-4.06-4.14c-1.08-4.06-.8-3.57-3.71-6.53a5.92,5.92,0,0,1-1.49-5.65c1.07-4.06,1.07-3.49,0-7.54a5.92,5.92,0,0,1,1.49-5.65c2.91-3,2.63-2.47,3.7-6.52a5.8,5.8,0,0,1,4.06-4.14c4-1.09,3.5-.81,6.42-3.77a5.66,5.66,0,0,1,5.55-1.52c4,1.09,3.43,1.09,7.41,0a5.69,5.69,0,0,1,5.53,1.51c2.93,3,2.45,2.69,6.43,3.77a5.83,5.83,0,0,1,4.06,4.14c1.07,4.05.79,3.57,3.7,6.53a5.92,5.92,0,0,1,1.49,5.65Zm-11.22,3.32a13.7,13.7,0,1,0-13.7,13.7A13.7,13.7,0,0,0,571.19,427.12Z"/><path class="cls-3" d="M591.48,148.41c0,15.26-15.21,27.62-34,27.62a40.37,40.37,0,0,1-14.26-2.57,30.4,30.4,0,0,1-18.67,6.82,1,1,0,0,1-1-.63,1.08,1.08,0,0,1,.2-1.16c.07-.07,5.62-6,7.28-12.72a24.51,24.51,0,0,1-7.57-17.36c0-15.25,15.22-27.62,34-27.62S591.48,133.16,591.48,148.41ZM562.43,142h0a3.56,3.56,0,1,0,3.56-3.56A3.56,3.56,0,0,0,562.43,142ZM549,138.48a3.56,3.56,0,1,0,3.56,3.56,3.56,3.56,0,0,0-3.56-3.56Zm21.81,18.71a2.14,2.14,0,0,0-3.26-2.76,14.44,14.44,0,0,1-1.35,1.36,13.32,13.32,0,0,1-18.78-1.35,2,2,0,0,0-.19-.22,2.12,2.12,0,0,0-3,3A15.81,15.81,0,0,0,546,159a17.57,17.57,0,0,0,24.78-1.83Z"/><path d="M562.43,142h0A3.56,3.56,0,1,1,566,145.6,3.56,3.56,0,0,1,562.43,142ZM549,145.6a3.56,3.56,0,1,1,3.56-3.56A3.56,3.56,0,0,1,549,145.6Zm21.55,8.59h0a2.11,2.11,0,0,1,.25,3,17.57,17.57,0,0,1-26.61,0,2.2,2.2,0,0,1-.2-.23,2.12,2.12,0,0,1,3.42-2.52,13.3,13.3,0,0,0,20.13,0,2.14,2.14,0,0,1,3-.24Z"/><path class="cls-3" d="M591.48,298.78a4.26,4.26,0,0,1-4.24,4.26H583v8.5a8.5,8.5,0,0,1-8.5,8.49H566v8.5H532V305a25.46,25.46,0,0,1,17-44.45h9.83a27.61,27.61,0,0,1,22.58,11.71c3.27,4.65,6.93,18.54,9.71,24.8A4.24,4.24,0,0,1,591.48,298.78Zm-17-17a6.37,6.37,0,0,0-6.37-6.37h-.39a7.54,7.54,0,0,0-.51-1.12,6.29,6.29,0,0,0-8.6-2.28,6.43,6.43,0,0,0-2-2,6.34,6.34,0,0,0-8.74,2,6.25,6.25,0,0,0-3.12-.85,6.38,6.38,0,0,0-6.38,6.37,6.36,6.36,0,0,0-2.08,12.37c0,.13,0,.25,0,.38a6.37,6.37,0,0,0,6.37,6.37,6.18,6.18,0,0,0,2.13-.39V303h8.49v-6.77a6.18,6.18,0,0,0,2.13.39,6.37,6.37,0,0,0,6.37-6.37,6.22,6.22,0,0,0-.39-2.13h6.77A6.37,6.37,0,0,0,574.49,281.79Z"/><path d="M536.29,289.91c0,.13,0,.25,0,.38a6.37,6.37,0,0,0,6.37,6.37,6.18,6.18,0,0,0,2.13-.39V303h8.49v-6.77a6.18,6.18,0,0,0,2.13.39,6.37,6.37,0,0,0,6.37-6.37,6.22,6.22,0,0,0-.39-2.13h6.77a6.37,6.37,0,1,0,0-12.74h-.39a7.54,7.54,0,0,0-.51-1.12,6.29,6.29,0,0,0-8.6-2.28,6.43,6.43,0,0,0-2-2,6.34,6.34,0,0,0-8.74,2,6.25,6.25,0,0,0-3.12-.85,6.38,6.38,0,0,0-6.38,6.37,6.36,6.36,0,0,0-2.08,12.37Z"/><path class="cls-3" d="M451.73,419.42v46.74h0a6.37,6.37,0,0,1-6.37,6.37H381.62a6.37,6.37,0,0,1-6.37-6.37V419.42a6.38,6.38,0,0,1,6.37-6.38H405v8.5h-2.12a2.13,2.13,0,1,0,0,4.25h21.24a2.13,2.13,0,1,0,0-4.25H422V413h23.37A6.38,6.38,0,0,1,451.73,419.42ZM405,442.79a8.5,8.5,0,1,0,8.5-8.5A8.51,8.51,0,0,0,405,442.79Zm23,18.61a8.49,8.49,0,0,0-8.08-5.86h-1.09a13.74,13.74,0,0,1-10.57,0h-1.09A8.49,8.49,0,0,0,399,461.4,2.1,2.1,0,0,0,401.1,464h24.78A2.09,2.09,0,0,0,428,461.4Z"/><path d="M422,421.54H405V408.79a4.25,4.25,0,0,1,4.25-4.24h8.5a4.24,4.24,0,0,1,4.25,4.24Zm-17,21.25a8.5,8.5,0,1,1,8.5,8.5A8.5,8.5,0,0,1,405,442.79Zm23,18.61a2.09,2.09,0,0,1-2.07,2.63H401.1A2.1,2.1,0,0,1,399,461.4a8.49,8.49,0,0,1,8.09-5.86h1.09a13.74,13.74,0,0,0,10.57,0h1.09A8.49,8.49,0,0,1,428,461.4Z"/><path class="cls-3" d="M163.73,419.42v46.74h0a6.37,6.37,0,0,1-6.37,6.37H93.62a6.37,6.37,0,0,1-6.37-6.37V419.42A6.38,6.38,0,0,1,93.62,413H117v8.5h-2.12a2.13,2.13,0,1,0,0,4.25h21.24a2.13,2.13,0,1,0,0-4.25H134V413h23.37A6.38,6.38,0,0,1,163.73,419.42ZM117,442.79a8.5,8.5,0,1,0,8.5-8.5A8.51,8.51,0,0,0,117,442.79Zm23,18.61a8.49,8.49,0,0,0-8.08-5.86h-1.09a13.74,13.74,0,0,1-10.57,0h-1.09A8.49,8.49,0,0,0,111,461.4,2.1,2.1,0,0,0,113.1,464h24.78A2.09,2.09,0,0,0,140,461.4Z"/><path d="M134,421.54H117V408.79a4.25,4.25,0,0,1,4.25-4.24h8.5a4.24,4.24,0,0,1,4.25,4.24Zm-17,21.25a8.5,8.5,0,1,1,8.5,8.5A8.5,8.5,0,0,1,117,442.79Zm23,18.61a2.09,2.09,0,0,1-2.07,2.63H113.1A2.1,2.1,0,0,1,111,461.4a8.49,8.49,0,0,1,8.09-5.86h1.09a13.74,13.74,0,0,0,10.57,0h1.09A8.49,8.49,0,0,1,140,461.4Z"/><path class="cls-3" d="M307.73,131.42v46.74h0a6.37,6.37,0,0,1-6.37,6.37H237.62a6.37,6.37,0,0,1-6.37-6.37V131.42a6.38,6.38,0,0,1,6.37-6.38H261v8.5h-2.12a2.13,2.13,0,1,0,0,4.25h21.24a2.13,2.13,0,1,0,0-4.25H278V125h23.37A6.38,6.38,0,0,1,307.73,131.42ZM261,154.79a8.5,8.5,0,1,0,8.5-8.5A8.51,8.51,0,0,0,261,154.79Zm23,18.61a8.49,8.49,0,0,0-8.08-5.86h-1.09a13.74,13.74,0,0,1-10.57,0h-1.09A8.49,8.49,0,0,0,255,173.4,2.1,2.1,0,0,0,257.1,176h24.78A2.09,2.09,0,0,0,284,173.4Z"/><path d="M278,133.54H261V120.79a4.25,4.25,0,0,1,4.25-4.24h8.5a4.24,4.24,0,0,1,4.25,4.24Zm-17,21.25a8.5,8.5,0,1,1,8.5,8.5A8.5,8.5,0,0,1,261,154.79Zm23,18.61a2.09,2.09,0,0,1-2.07,2.63H257.1A2.1,2.1,0,0,1,255,173.4a8.49,8.49,0,0,1,8.09-5.86h1.09a13.74,13.74,0,0,0,10.57,0h1.09A8.49,8.49,0,0,1,284,173.4Z"/><path class="cls-3" d="M447.48,122.92v44.62h-68V122.92a6.39,6.39,0,0,1,6.37-6.37h55.24A6.38,6.38,0,0,1,447.48,122.92ZM439,125H388v34h51Z"/><path d="M439,159H388V125h51Zm17,14.87V176a8.52,8.52,0,0,1-8.5,8.5h-68A8.52,8.52,0,0,1,371,176v-2.12a2.13,2.13,0,0,1,2.12-2.13h31.77a4.51,4.51,0,0,0,4.35,4.25h8.08a4.18,4.18,0,0,0,4.34-4.25h32.2A2.13,2.13,0,0,1,456,173.91Z"/><path class="cls-3" d="M159.48-21.08V23.54h-68V-21.08a6.39,6.39,0,0,1,6.37-6.37h55.24A6.38,6.38,0,0,1,159.48-21.08ZM151-19H100V15h51Z"/><path d="M151,15H100V-19h51Zm17,14.87V32a8.52,8.52,0,0,1-8.5,8.5h-68A8.52,8.52,0,0,1,83,32V29.91a2.13,2.13,0,0,1,2.12-2.13h31.77A4.51,4.51,0,0,0,121.24,32h8.08a4.18,4.18,0,0,0,4.34-4.25h32.2A2.13,2.13,0,0,1,168,29.91Z"/><path class="cls-3" d="M-56.75-6.21a8.5,8.5,0,0,1,8.5-8.5,8.51,8.51,0,0,1,8.5,8.5,8.51,8.51,0,0,1-8.5,8.5A8.51,8.51,0,0,1-56.75-6.21ZM24,15v4.25a4.25,4.25,0,0,1-4.25,4.25H11A19.44,19.44,0,0,0,1,9,8.45,8.45,0,0,1,7,6.54h8.49A8.5,8.5,0,0,1,24,15Zm-68-8.5A8.49,8.49,0,0,1-38,9,19.46,19.46,0,0,0-48,23.54h-8.75A4.25,4.25,0,0,1-61,19.29V15a8.51,8.51,0,0,1,8.5-8.5ZM2.74-6.21a8.5,8.5,0,0,1,8.5-8.5,8.5,8.5,0,0,1,8.49,8.5,8.5,8.5,0,0,1-8.49,8.5A8.5,8.5,0,0,1,2.74-6.21Z"/><path d="M7,26.08v3.83A6.38,6.38,0,0,1,.61,36.28H-37.63A6.37,6.37,0,0,1-44,29.91V26.08A15.3,15.3,0,0,1-28.71,10.79h1.11a20.87,20.87,0,0,0,9.09,2.12,21,21,0,0,0,9.1-2.12h1.1A15.3,15.3,0,0,1,7,26.08ZM-18.52,6.54A14.86,14.86,0,0,1-33.38-8.33,14.88,14.88,0,0,1-18.51-23.21,14.88,14.88,0,0,1-3.64-8.33,14.87,14.87,0,0,1-18.51,6.54Z"/><path class="cls-3" d="M519.25-6.21a8.5,8.5,0,0,1,8.5-8.5,8.51,8.51,0,0,1,8.5,8.5,8.51,8.51,0,0,1-8.5,8.5A8.51,8.51,0,0,1,519.25-6.21ZM600,15v4.25a4.25,4.25,0,0,1-4.25,4.25H587A19.44,19.44,0,0,0,577,9a8.45,8.45,0,0,1,6-2.47h8.49A8.5,8.5,0,0,1,600,15Zm-68-8.5A8.49,8.49,0,0,1,538,9a19.46,19.46,0,0,0-10,14.53h-8.75A4.25,4.25,0,0,1,515,19.29V15a8.51,8.51,0,0,1,8.5-8.5ZM578.74-6.21a8.5,8.5,0,0,1,8.5-8.5,8.5,8.5,0,0,1,8.49,8.5,8.5,8.5,0,0,1-8.49,8.5A8.5,8.5,0,0,1,578.74-6.21Z"/><path d="M583,26.08v3.83a6.38,6.38,0,0,1-6.38,6.37H538.37A6.37,6.37,0,0,1,532,29.91V26.08a15.3,15.3,0,0,1,15.29-15.29h1.11a20.87,20.87,0,0,0,9.09,2.12,21,21,0,0,0,9.1-2.12h1.1A15.3,15.3,0,0,1,583,26.08ZM557.48,6.54A14.86,14.86,0,0,1,542.62-8.33a14.88,14.88,0,0,1,14.87-14.88A14.88,14.88,0,0,1,572.36-8.33,14.87,14.87,0,0,1,557.49,6.54Z"/><path class="cls-3" d="M307.27,584.48a42.08,42.08,0,0,1-75.56,0,4.34,4.34,0,0,1,0-3.88c7.2-14,21.46-23.56,37.78-23.56a42.6,42.6,0,0,1,37.78,23.56A4.28,4.28,0,0,1,307.27,584.48Zm-18.66-1.92a19.11,19.11,0,1,0-19.12,19.1h0A19.1,19.1,0,0,0,288.61,582.56Z"/><path d="M281.8,585.84a12.66,12.66,0,0,0-15.67-15.55,6.35,6.35,0,0,1-8.88,8.89l0,.07a12.72,12.72,0,1,0,24.57,6.59Z"/><path class="cls-3" d="M406.05,586.79a5.32,5.32,0,0,0,5.32-5.31V569.79H435.8a7.44,7.44,0,0,1,7.44,7.44V581l10.62-6.13a4.24,4.24,0,0,0,1.55-5.8l-10.62-18.41h0a4.24,4.24,0,0,0-5.8-1.55l-13.73,7.93H411.69a8.55,8.55,0,0,0-4.51,1.28l-4.44,2.78a4.21,4.21,0,0,0-2,3.6v16.77A5.31,5.31,0,0,0,406.05,586.79Z"/><path d="M382.2,614.41A4.25,4.25,0,0,0,388,616L401.73,608h18.13a8.51,8.51,0,0,0,8.5-8.5h2.13a4.25,4.25,0,0,0,4.25-4.25v-8.5h1.07A3.18,3.18,0,0,0,439,583.6v-6.39A3.19,3.19,0,0,0,435.8,574H415.61v7.44a9.56,9.56,0,0,1-19.12,0V565.33l-8.61,5.18a8.48,8.48,0,0,0-4.13,7.28v6.28l-10.63,6.13h0a4.24,4.24,0,0,0-1.54,5.79Z"/><path class="cls-3" d="M159.48,554.92v44.62h-68V554.92a6.39,6.39,0,0,1,6.37-6.37h55.24A6.38,6.38,0,0,1,159.48,554.92ZM151,557H100v34h51Z"/><path d="M151,591H100V557h51Zm17,14.87V608a8.52,8.52,0,0,1-8.5,8.5h-68A8.52,8.52,0,0,1,83,608v-2.12a2.13,2.13,0,0,1,2.12-2.13h31.77a4.51,4.51,0,0,0,4.35,4.25h8.08a4.18,4.18,0,0,0,4.34-4.25h32.2A2.13,2.13,0,0,1,168,605.91Z"/><path class="cls-3" d="M-56.75,569.79a8.5,8.5,0,0,1,8.5-8.5,8.51,8.51,0,0,1,8.5,8.5,8.51,8.51,0,0,1-8.5,8.5A8.51,8.51,0,0,1-56.75,569.79ZM24,591v4.25a4.25,4.25,0,0,1-4.25,4.25H11A19.44,19.44,0,0,0,1,585a8.45,8.45,0,0,1,6-2.47h8.49A8.5,8.5,0,0,1,24,591Zm-68-8.5A8.49,8.49,0,0,1-38,585a19.46,19.46,0,0,0-10,14.53h-8.75A4.25,4.25,0,0,1-61,595.29V591a8.51,8.51,0,0,1,8.5-8.5ZM2.74,569.79a8.5,8.5,0,1,1,8.5,8.5A8.5,8.5,0,0,1,2.74,569.79Z"/><path d="M7,602.08v3.83a6.38,6.38,0,0,1-6.38,6.37H-37.63A6.37,6.37,0,0,1-44,605.91v-3.83a15.3,15.3,0,0,1,15.29-15.29h1.11a20.87,20.87,0,0,0,9.09,2.12,21,21,0,0,0,9.1-2.12h1.1A15.3,15.3,0,0,1,7,602.08Zm-25.51-19.54a14.86,14.86,0,0,1-14.86-14.87,14.88,14.88,0,0,1,14.87-14.88A14.88,14.88,0,0,1-3.64,567.67a14.87,14.87,0,0,1-14.87,14.87Z"/><path class="cls-3" d="M519.25,569.79a8.5,8.5,0,1,1,8.5,8.5A8.5,8.5,0,0,1,519.25,569.79ZM600,591v4.25a4.25,4.25,0,0,1-4.25,4.25H587A19.44,19.44,0,0,0,577,585a8.45,8.45,0,0,1,6-2.47h8.49A8.5,8.5,0,0,1,600,591Zm-68-8.5a8.49,8.49,0,0,1,6,2.47,19.46,19.46,0,0,0-10,14.53h-8.75a4.25,4.25,0,0,1-4.25-4.25V591a8.51,8.51,0,0,1,8.5-8.5Zm46.74-12.75a8.5,8.5,0,1,1,8.5,8.5A8.5,8.5,0,0,1,578.74,569.79Z"/><path d="M583,602.08v3.83a6.38,6.38,0,0,1-6.38,6.37H538.37a6.37,6.37,0,0,1-6.37-6.37v-3.83a15.3,15.3,0,0,1,15.29-15.29h1.11a20.57,20.57,0,0,0,18.19,0h1.1A15.3,15.3,0,0,1,583,602.08Zm-25.51-19.54a14.88,14.88,0,1,1,14.88-14.87,14.86,14.86,0,0,1-14.88,14.87Z"/></g></pattern></defs><title>elements</title><rect class="cls-4" width="3722.4" height="1260.76"/><rect class="cls-5" width="3722.4" height="1260.76"/><rect class="cls-1" width="3722.4" height="1260.76"/></svg>