<svg id="Layer_1" data-name="Layer 1" xmlns="http://www.w3.org/2000/svg" xmlns:xlink="http://www.w3.org/1999/xlink" viewBox="0 0 3722.4 1260.76"><defs><style>.cls-1{fill:none;}.cls-2{clip-path:url(#clip-path);}.cls-3{fill:#0d0f22;}.cls-4{fill:#0c1733;}.cls-5{fill:url(#New_Pattern);}</style><clipPath id="clip-path"><rect class="cls-1" width="576" height="576"/></clipPath><pattern id="New_Pattern" data-name="New Pattern" width="576" height="576" patternUnits="userSpaceOnUse" viewBox="0 0 576 576"><rect class="cls-1" width="576" height="576"/><g class="cls-2"><path class="cls-3" d="M-18.9,434.25V400.89a2.25,2.25,0,0,0-2.51-2.26,33.73,33.73,0,0,0-29,34.51,34.17,34.17,0,0,0,32.6,32.59,33.73,33.73,0,0,0,34.51-29,2.26,2.26,0,0,0-2.26-2.51Z"/><path d="M-9.79,393.76A2.26,2.26,0,0,0-12.15,396V427.5H19.32a2.27,2.27,0,0,0,2.28-2.36A33.84,33.84,0,0,0-9.79,393.76Z"/><path class="cls-3" d="M-21.14,146.25V112.89a2.25,2.25,0,0,0-2.51-2.26,33.71,33.71,0,0,0-29,34.55c.61,18,16.13,32.79,34.15,32.57a33.47,33.47,0,0,0,19-6.2,2.23,2.23,0,0,0,.22-3.38Z"/><path d="M17.07,139.5H-14.39V108A2.27,2.27,0,0,1-12,105.75a33.84,33.84,0,0,1,31.38,31.39A2.26,2.26,0,0,1,17.07,139.5Zm6.76,9.26a33.67,33.67,0,0,1-10.29,19.8,2.26,2.26,0,0,1-3.12-.09l-22.21-22.22H21.57A2.25,2.25,0,0,1,23.83,148.76Z"/><path class="cls-3" d="M450.79-2.25a34.87,34.87,0,0,1-34.87,34.87A34.87,34.87,0,0,1,381-2.25a34.87,34.87,0,0,1,34.88-34.87A34.87,34.87,0,0,1,450.79-2.25Zm-13-10.59L434.57-16h0a2.25,2.25,0,0,0-3.18,0l-21.1,21.1-9.85-9.85h0a2.25,2.25,0,0,0-3.18,0l-3.18,3.18a2.25,2.25,0,0,0,0,3.18L408.7,16.21a2.25,2.25,0,0,0,3.18,0L437.75-9.66A2.25,2.25,0,0,0,437.75-12.84Z"/><path d="M437.75-9.66a2.25,2.25,0,0,0,0-3.18L434.57-16h0a2.25,2.25,0,0,0-3.18,0l-21.1,21.1-9.85-9.85h0a2.25,2.25,0,0,0-3.18,0l-3.18,3.18a2.25,2.25,0,0,0,0,3.18L408.7,16.21a2.25,2.25,0,0,0,3.18,0Z"/><path class="cls-3" d="M159.41,285.75a34.87,34.87,0,1,1-34.87-34.87A34.87,34.87,0,0,1,159.41,285.75Zm-13-10.59L143.2,272h0a2.25,2.25,0,0,0-3.18,0l-21.1,21.1-9.86-9.85h0a2.25,2.25,0,0,0-3.18,0l-3.18,3.18a2.25,2.25,0,0,0,0,3.18l14.62,14.62a2.26,2.26,0,0,0,3.19,0l25.87-25.87A2.25,2.25,0,0,0,146.38,275.16Z"/><path d="M146.38,278.34a2.25,2.25,0,0,0,0-3.18L143.2,272h0a2.25,2.25,0,0,0-3.18,0l-21.1,21.1-9.86-9.85h0a2.25,2.25,0,0,0-3.18,0l-3.18,3.18a2.25,2.25,0,0,0,0,3.18l14.62,14.62a2.26,2.26,0,0,0,3.19,0Z"/><path class="cls-3" d="M304,15.75H243.23V-27A2.25,2.25,0,0,0,241-29.25h-4.5A2.25,2.25,0,0,0,234.23-27V20.25a4.51,4.51,0,0,0,4.5,4.5H304a2.25,2.25,0,0,0,2.25-2.25V18A2.25,2.25,0,0,0,304,15.75Z"/><path d="M299.47-24.75H282.88A3.38,3.38,0,0,0,280.49-19L285-14.43,274.73-4.11,264.41-14.43a4.49,4.49,0,0,0-6.36,0l-9.66,9.66h0a2.25,2.25,0,0,0,0,3.18l3.18,3.18h0a2.25,2.25,0,0,0,3.18,0l6.48-6.48L271.54,5.43a4.5,4.5,0,0,0,6.37,0L291.4-8.06,296-3.51a3.38,3.38,0,0,0,5.76-2.39V-22.5A2.25,2.25,0,0,0,299.47-24.75Z"/><path class="cls-3" d="M158.29,159.75H97.54V117a2.25,2.25,0,0,0-2.25-2.25h-4.5A2.25,2.25,0,0,0,88.54,117v47.25a4.51,4.51,0,0,0,4.5,4.5h65.25a2.25,2.25,0,0,0,2.25-2.25V162A2.25,2.25,0,0,0,158.29,159.75Z"/><path d="M153.79,119.25h-16.6A3.38,3.38,0,0,0,134.8,125l4.56,4.55L129,139.89l-10.32-10.32a4.49,4.49,0,0,0-6.36,0l-9.66,9.66h0a2.25,2.25,0,0,0,0,3.18l3.18,3.18h0a2.25,2.25,0,0,0,3.18,0l6.48-6.48,10.31,10.32a4.5,4.5,0,0,0,6.37,0l13.5-13.49,4.55,4.55A3.38,3.38,0,0,0,156,138.1V121.5A2.25,2.25,0,0,0,153.79,119.25Z"/><path class="cls-3" d="M19.35,303.75H-41.39V261a2.25,2.25,0,0,0-2.25-2.25h-4.5A2.25,2.25,0,0,0-50.39,261v47.25a4.5,4.5,0,0,0,4.5,4.5H19.35a2.25,2.25,0,0,0,2.25-2.25V306A2.25,2.25,0,0,0,19.35,303.75Z"/><path d="M-9.9,265.05V293a1.94,1.94,0,0,1-1.8,1.8h-5.4a1.94,1.94,0,0,1-1.8-1.8v-27.9a1.94,1.94,0,0,1,1.8-1.8h5.4A1.94,1.94,0,0,1-9.9,265.05Zm-15.3,16.2a1.94,1.94,0,0,1,1.8,1.8V293a1.94,1.94,0,0,1-1.8,1.8h-5.39a1.94,1.94,0,0,1-1.8-1.8v-9.9a1.94,1.94,0,0,1,1.8-1.8Zm42.3-20.7V293a1.94,1.94,0,0,1-1.8,1.8H9.9A1.94,1.94,0,0,1,8.1,293v-32.4a1.94,1.94,0,0,1,1.8-1.8h5.4A1.94,1.94,0,0,1,17.1,260.55ZM3.6,274.05V293a1.94,1.94,0,0,1-1.8,1.8H-3.6A1.94,1.94,0,0,1-5.4,293v-18.9a1.94,1.94,0,0,1,1.8-1.8H1.8A1.94,1.94,0,0,1,3.6,274.05Z"/><path class="cls-3" d="M557.1,434.25V400.89a2.25,2.25,0,0,0-2.51-2.26,33.73,33.73,0,0,0-29,34.51,34.17,34.17,0,0,0,32.6,32.59,33.73,33.73,0,0,0,34.51-29,2.26,2.26,0,0,0-2.26-2.51Z"/><path d="M566.21,393.76a2.26,2.26,0,0,0-2.36,2.28V427.5h31.47a2.27,2.27,0,0,0,2.28-2.36A33.84,33.84,0,0,0,566.21,393.76Z"/><path class="cls-3" d="M411.41,290.25V256.89a2.25,2.25,0,0,0-2.51-2.26,33.71,33.71,0,0,0-29,34.51,34.15,34.15,0,0,0,32.59,32.59,33.73,33.73,0,0,0,34.51-29,2.26,2.26,0,0,0-2.26-2.51Z"/><path d="M420.53,249.76a2.26,2.26,0,0,0-2.37,2.28V283.5h31.47a2.25,2.25,0,0,0,2.28-2.36A33.84,33.84,0,0,0,420.53,249.76Z"/><path class="cls-3" d="M554.86,146.25V112.89a2.25,2.25,0,0,0-2.51-2.26,33.71,33.71,0,0,0-29,34.55c.61,18,16.13,32.79,34.15,32.57a33.47,33.47,0,0,0,19-6.2,2.23,2.23,0,0,0,.22-3.38Z"/><path d="M593.07,139.5H561.61V108a2.27,2.27,0,0,1,2.36-2.29,33.84,33.84,0,0,1,31.38,31.39A2.26,2.26,0,0,1,593.07,139.5Zm6.76,9.26a33.67,33.67,0,0,1-10.29,19.8,2.26,2.26,0,0,1-3.12-.09l-22.21-22.22h33.36A2.25,2.25,0,0,1,599.83,148.76Z"/><path class="cls-3" d="M263.48,434.25V400.89a2.25,2.25,0,0,0-2.51-2.26,33.72,33.72,0,0,0-29,34.55c.62,18,16.13,32.79,34.15,32.57a33.5,33.5,0,0,0,19-6.2,2.23,2.23,0,0,0,.22-3.38Z"/><path d="M301.69,427.5H270.23V396a2.27,2.27,0,0,1,2.36-2.29A33.86,33.86,0,0,1,304,425.14,2.27,2.27,0,0,1,301.69,427.5Zm6.76,9.26a33.66,33.66,0,0,1-10.28,19.8,2.26,2.26,0,0,1-3.12-.09l-22.22-22.22H306.2A2.25,2.25,0,0,1,308.45,436.76Z"/><path class="cls-3" d="M595.35,303.75H534.61V261a2.25,2.25,0,0,0-2.25-2.25h-4.5a2.25,2.25,0,0,0-2.25,2.25v47.25a4.5,4.5,0,0,0,4.5,4.5h65.24a2.25,2.25,0,0,0,2.25-2.25V306A2.25,2.25,0,0,0,595.35,303.75Z"/><path d="M566.1,265.05V293a1.94,1.94,0,0,1-1.8,1.8h-5.4a1.94,1.94,0,0,1-1.8-1.8v-27.9a1.94,1.94,0,0,1,1.8-1.8h5.4A1.94,1.94,0,0,1,566.1,265.05Zm-15.3,16.2a1.94,1.94,0,0,1,1.8,1.8V293a1.94,1.94,0,0,1-1.8,1.8h-5.39a1.94,1.94,0,0,1-1.8-1.8v-9.9a1.94,1.94,0,0,1,1.8-1.8Zm42.3-20.7V293a1.94,1.94,0,0,1-1.8,1.8h-5.4a1.94,1.94,0,0,1-1.8-1.8v-32.4a1.94,1.94,0,0,1,1.8-1.8h5.4A1.94,1.94,0,0,1,593.1,260.55Zm-13.5,13.5V293a1.94,1.94,0,0,1-1.8,1.8h-5.4a1.94,1.94,0,0,1-1.8-1.8v-18.9a1.94,1.94,0,0,1,1.8-1.8h5.4A1.94,1.94,0,0,1,579.6,274.05Z"/><path class="cls-3" d="M158.29,447.75H97.54V405a2.25,2.25,0,0,0-2.25-2.25h-4.5A2.25,2.25,0,0,0,88.54,405v47.25a4.51,4.51,0,0,0,4.5,4.5h65.25a2.25,2.25,0,0,0,2.25-2.25V450A2.25,2.25,0,0,0,158.29,447.75Z"/><path d="M129,409.05V437a1.94,1.94,0,0,1-1.8,1.8h-5.4A1.94,1.94,0,0,1,120,437v-27.9a1.94,1.94,0,0,1,1.8-1.8h5.4A1.94,1.94,0,0,1,129,409.05Zm-15.3,16.2a1.94,1.94,0,0,1,1.8,1.8V437a1.94,1.94,0,0,1-1.8,1.8h-5.4a1.94,1.94,0,0,1-1.8-1.8v-9.9a1.94,1.94,0,0,1,1.8-1.8Zm42.3-20.7V437a1.94,1.94,0,0,1-1.8,1.8h-5.4A1.94,1.94,0,0,1,147,437v-32.4a1.94,1.94,0,0,1,1.8-1.8h5.4A1.94,1.94,0,0,1,156,404.55Zm-13.5,13.5V437a1.94,1.94,0,0,1-1.8,1.8h-5.4a1.94,1.94,0,0,1-1.8-1.8v-18.9a1.94,1.94,0,0,1,1.8-1.8h5.4A1.94,1.94,0,0,1,142.54,418.05Z"/><path class="cls-3" d="M449.66,159.75H388.92V117a2.25,2.25,0,0,0-2.25-2.25h-4.5a2.25,2.25,0,0,0-2.25,2.25v47.25a4.5,4.5,0,0,0,4.5,4.5h65.24a2.25,2.25,0,0,0,2.25-2.25V162A2.25,2.25,0,0,0,449.66,159.75Z"/><path d="M420.42,121.05V149a1.94,1.94,0,0,1-1.8,1.8h-5.4a1.94,1.94,0,0,1-1.8-1.8v-27.9a1.94,1.94,0,0,1,1.8-1.8h5.4A1.94,1.94,0,0,1,420.42,121.05Zm-15.3,16.2a1.94,1.94,0,0,1,1.8,1.8V149a1.94,1.94,0,0,1-1.8,1.8h-5.4a1.94,1.94,0,0,1-1.8-1.8v-9.9a1.94,1.94,0,0,1,1.8-1.8Zm42.29-20.7V149a1.94,1.94,0,0,1-1.8,1.8h-5.4a1.94,1.94,0,0,1-1.8-1.8v-32.4a1.94,1.94,0,0,1,1.8-1.8h5.4A1.94,1.94,0,0,1,447.41,116.55Zm-13.5,13.5V149a1.94,1.94,0,0,1-1.8,1.8h-5.4a1.94,1.94,0,0,1-1.8-1.8v-18.9a1.94,1.94,0,0,1,1.8-1.8h5.4A1.94,1.94,0,0,1,433.91,130.05Z"/><path class="cls-3" d="M534.61,4.49a9,9,0,1,1-9-9A9,9,0,0,1,534.61,4.49ZM538,2.24h6.75v4.5H538Zm48.15-15.57,2.69,3.59-6.74,5.07-2.7-3.6Zm20.47-6.92a9,9,0,0,1-9,9,9,9,0,0,1-9-9,9,9,0,0,1,9-9A9,9,0,0,1,606.6-20.25Z"/><path d="M599,15.85a9,9,0,1,1-10.24,7.51l-13.47-8.08A15.7,15.7,0,1,1,554.32-7.95L548.55-20.3c-.15,0-.29.05-.45.05a9,9,0,0,1-6.1-2.38,9,9,0,0,1-.52-12.68,9,9,0,0,1,12.68-.52,9,9,0,0,1,.52,12.68l5.74,12.29a15.32,15.32,0,0,1,3.43-.41h0A15.74,15.74,0,0,1,579.6,4.48a15.69,15.69,0,0,1-.88,5l13.49,8.1a9,9,0,0,1,5.39-1.83A9.17,9.17,0,0,1,599,15.85ZM570.6,4.49a6.75,6.75,0,1,0-6.75,6.75A6.75,6.75,0,0,0,570.6,4.49Z"/><path class="cls-3" d="M243.23,148.49a9,9,0,1,1-9-9A9,9,0,0,1,243.23,148.49Zm3.37-2.25h6.75v4.5H246.6Zm48.15-15.57,2.7,3.59-6.75,5.07-2.7-3.6Zm20.47-6.92a9,9,0,1,1-9-9A9,9,0,0,1,315.22,123.75Z"/><path d="M307.6,159.85a9,9,0,1,1-10.24,7.51l-13.47-8.08a15.7,15.7,0,1,1-20.95-23.23l-5.76-12.35c-.16,0-.3,0-.45,0a9,9,0,1,1,6.58-2.9l5.74,12.29a15.18,15.18,0,0,1,3.43-.41h0a15.75,15.75,0,0,1,15.74,15.75,15.42,15.42,0,0,1-.89,5l13.5,8.1a9,9,0,0,1,5.38-1.83A9.07,9.07,0,0,1,307.6,159.85Zm-28.37-11.36a6.75,6.75,0,1,0-6.75,6.75A6.75,6.75,0,0,0,279.23,148.49Z"/><path class="cls-3" d="M388.92,436.49a9,9,0,1,1-9-9A9,9,0,0,1,388.92,436.49Zm3.37-2.25H399v4.5h-6.75Zm48.15-15.57,2.7,3.59-6.75,5.07-2.7-3.6Zm20.47-6.92a9,9,0,1,1-9-9A9,9,0,0,1,460.91,411.75Z"/><path d="M453.29,447.85a9,9,0,1,1-10.24,7.51l-13.47-8.08a15.7,15.7,0,1,1-20.95-23.23l-5.76-12.35c-.16,0-.3.05-.45.05a9,9,0,1,1,6.58-2.9l5.73,12.29a15.32,15.32,0,0,1,3.43-.41h0a15.74,15.74,0,0,1,15.73,15.75,15.41,15.41,0,0,1-.88,5l13.5,8.1a9,9,0,0,1,5.38-1.83A9.17,9.17,0,0,1,453.29,447.85Zm-28.38-11.36a6.75,6.75,0,1,0-6.75,6.75A6.75,6.75,0,0,0,424.91,436.49Z"/><path class="cls-3" d="M130.32-38.18h0A1.69,1.69,0,0,0,128.22-37L109,29.09h0a1.69,1.69,0,0,0,1.15,2.09l8.58,2.49h0a1.68,1.68,0,0,0,2.08-1.16l19.2-66.11h0a1.69,1.69,0,0,0-1.16-2.09Z"/><path d="M169-3.47l.09.09A1.68,1.68,0,0,1,169-1L148.73,18h0a1.7,1.7,0,0,1-2.39-.09l-6.11-6.53s0,0,0-.05A1.68,1.68,0,0,1,140.34,9l12.74-11.2L140.34-13.46l0,0a1.68,1.68,0,0,1-.08-2.38l6.12-6.53a1.69,1.69,0,0,1,2.39-.07L169-3.47Zm-60.15-12.4s0,0,.05.06a1.67,1.67,0,0,1-.17,2.36L96-2.24,108.73,9l0,0a1.7,1.7,0,0,1,.08,2.39l-6.12,6.52,0,0a1.68,1.68,0,0,1-2.37,0L80.08-1,80-1.11a1.69,1.69,0,0,1,.09-2.38l20.26-19h0a1.68,1.68,0,0,1,2.38.07l6.12,6.53Z"/><path class="cls-3" d="M276,249.82h0a1.69,1.69,0,0,0-2.09,1.16l-19.19,66.11h0a1.69,1.69,0,0,0,1.15,2.09l8.58,2.49h0a1.69,1.69,0,0,0,2.09-1.16l19.2-66.11h0a1.69,1.69,0,0,0-1.16-2.09Z"/><path d="M314.69,284.53l.09.09a1.68,1.68,0,0,1-.09,2.37l-20.27,19h0a1.7,1.7,0,0,1-2.39-.09l-6.11-6.53s0,0-.05-.05A1.68,1.68,0,0,1,286,297l12.74-11.2L286,274.54l0,0a1.68,1.68,0,0,1-.08-2.38l6.11-6.53a1.7,1.7,0,0,1,2.4-.07l20.26,19Zm-60.15-12.4.05.06a1.67,1.67,0,0,1-.17,2.36l-12.74,11.21L254.42,297l0,0a1.7,1.7,0,0,1,.08,2.39l-6.12,6.52,0,0A1.68,1.68,0,0,1,246,306l-20.27-19-.08-.08a1.7,1.7,0,0,1,.08-2.38l20.27-19h0a1.69,1.69,0,0,1,2.39.07l6.12,6.53Z"/><path class="cls-3" d="M450.79,573.75a34.88,34.88,0,1,1-34.87-34.87A34.87,34.87,0,0,1,450.79,573.75Zm-13-10.59L434.57,560h0a2.25,2.25,0,0,0-3.18,0l-21.1,21.1-9.85-9.85h0a2.25,2.25,0,0,0-3.18,0l-3.18,3.18a2.25,2.25,0,0,0,0,3.18l14.62,14.62a2.25,2.25,0,0,0,3.18,0l25.87-25.87A2.25,2.25,0,0,0,437.75,563.16Z"/><path d="M437.75,566.34a2.25,2.25,0,0,0,0-3.18L434.57,560h0a2.25,2.25,0,0,0-3.18,0l-21.1,21.1-9.85-9.85h0a2.25,2.25,0,0,0-3.18,0l-3.18,3.18a2.25,2.25,0,0,0,0,3.18l14.62,14.62a2.25,2.25,0,0,0,3.18,0Z"/><path class="cls-3" d="M304,591.75H243.23V549a2.25,2.25,0,0,0-2.25-2.25h-4.5a2.25,2.25,0,0,0-2.25,2.25v47.25a4.51,4.51,0,0,0,4.5,4.5H304a2.25,2.25,0,0,0,2.25-2.25V594A2.25,2.25,0,0,0,304,591.75Z"/><path d="M299.47,551.25H282.88a3.38,3.38,0,0,0-2.39,5.77l4.55,4.55-10.31,10.32-10.32-10.32a4.49,4.49,0,0,0-6.36,0l-9.66,9.66h0a2.25,2.25,0,0,0,0,3.18l3.18,3.18h0a2.25,2.25,0,0,0,3.18,0l6.48-6.48,10.31,10.32a4.5,4.5,0,0,0,6.37,0l13.49-13.49,4.56,4.55a3.38,3.38,0,0,0,5.76-2.39V553.5A2.25,2.25,0,0,0,299.47,551.25Z"/><path class="cls-3" d="M534.61,580.49a9,9,0,1,1-9-9A9,9,0,0,1,534.61,580.49Zm3.37-2.25h6.75v4.5H538Zm48.15-15.57,2.69,3.59-6.74,5.07-2.7-3.6Zm20.47-6.92a9,9,0,1,1-9-9A9,9,0,0,1,606.6,555.75Z"/><path d="M599,591.85a9,9,0,1,1-10.24,7.51l-13.47-8.08a15.7,15.7,0,1,1-20.95-23.23l-5.77-12.35c-.15,0-.29,0-.45,0a9,9,0,1,1,6.58-2.9l5.74,12.29a15.32,15.32,0,0,1,3.43-.41h0a15.58,15.58,0,0,1,14.85,20.74l13.49,8.1a9,9,0,0,1,5.39-1.83A9.17,9.17,0,0,1,599,591.85ZM570.6,580.49a6.75,6.75,0,1,0-6.75,6.75A6.75,6.75,0,0,0,570.6,580.49Z"/><path class="cls-3" d="M-41.39,4.49a9,9,0,0,1-9,9,9,9,0,0,1-9-9,9,9,0,0,1,9-9A9,9,0,0,1-41.39,4.49ZM-38,2.24h6.75v4.5H-38ZM10.13-13.33l2.69,3.59L6.08-4.67l-2.7-3.6ZM30.6-20.25a9,9,0,0,1-9,9,9,9,0,0,1-9-9,9,9,0,0,1,9-9A9,9,0,0,1,30.6-20.25Z"/><path d="M23,15.85a9,9,0,1,1-10.24,7.51L-.73,15.28a15.69,15.69,0,0,1-11.5,5A15.71,15.71,0,0,1-27.9,4.49,15.62,15.62,0,0,1-21.68-7.95L-27.45-20.3c-.15,0-.29.05-.45.05A9,9,0,0,1-34-22.63a9,9,0,0,1-.52-12.68,9,9,0,0,1,12.68-.52,9,9,0,0,1,.52,12.68l5.74,12.29a15.32,15.32,0,0,1,3.43-.41h0A15.74,15.74,0,0,1,3.6,4.48a15.69,15.69,0,0,1-.88,5l13.49,8.1a9,9,0,0,1,5.39-1.83A9.17,9.17,0,0,1,23,15.85ZM-5.4,4.49a6.75,6.75,0,0,0-6.75-6.74A6.75,6.75,0,0,0-18.9,4.49a6.75,6.75,0,0,0,6.75,6.75A6.75,6.75,0,0,0-5.4,4.49Z"/><path class="cls-3" d="M-41.39,580.49a9,9,0,0,1-9,9,9,9,0,0,1-9-9,9,9,0,0,1,9-9A9,9,0,0,1-41.39,580.49Zm3.37-2.25h6.75v4.5H-38Zm48.15-15.57,2.69,3.59-6.74,5.07-2.7-3.6Zm20.47-6.92a9,9,0,1,1-9-9A9,9,0,0,1,30.6,555.75Z"/><path d="M23,591.85a9,9,0,1,1-10.24,7.51L-.73,591.28a15.69,15.69,0,0,1-11.5,5A15.71,15.71,0,0,1-27.9,580.49a15.62,15.62,0,0,1,6.22-12.44l-5.77-12.35c-.15,0-.29,0-.45,0a9,9,0,0,1-6.1-2.38,9,9,0,0,1-.52-12.68,9,9,0,0,1,12.68-.52,9,9,0,0,1,.52,12.68l5.74,12.29a15.32,15.32,0,0,1,3.43-.41h0A15.74,15.74,0,0,1,3.6,580.48a15.69,15.69,0,0,1-.88,5l13.49,8.1a9,9,0,0,1,5.39-1.83A9.17,9.17,0,0,1,23,591.85ZM-5.4,580.49a6.75,6.75,0,0,0-6.75-6.74,6.75,6.75,0,0,0-6.75,6.74,6.75,6.75,0,0,0,6.75,6.75A6.75,6.75,0,0,0-5.4,580.49Z"/><path class="cls-3" d="M130.32,537.82h0a1.69,1.69,0,0,0-2.09,1.16L109,605.09h0a1.69,1.69,0,0,0,1.15,2.09l8.58,2.49h0a1.68,1.68,0,0,0,2.08-1.16l19.2-66.11h0a1.69,1.69,0,0,0-1.16-2.09Z"/><path d="M169,572.53l.09.09A1.68,1.68,0,0,1,169,575l-20.27,19h0a1.7,1.7,0,0,1-2.39-.09l-6.11-6.53,0,0a1.68,1.68,0,0,1,.16-2.37l12.74-11.2-12.74-11.22,0,0a1.68,1.68,0,0,1-.08-2.38l6.12-6.53a1.69,1.69,0,0,1,2.39-.07l20.26,19Zm-60.15-12.4s0,0,.05.06a1.67,1.67,0,0,1-.17,2.36L96,573.76,108.73,585l0,0a1.7,1.7,0,0,1,.08,2.39l-6.12,6.52,0,0a1.68,1.68,0,0,1-2.37.05L80.08,575l-.09-.08a1.69,1.69,0,0,1,.09-2.38l20.26-19h0a1.68,1.68,0,0,1,2.38.07l6.12,6.53Z"/></g></pattern></defs><title>elements</title><rect class="cls-4" width="3722.4" height="1260.76"/><rect class="cls-5" width="3722.4" height="1260.76"/></svg>