<?xml version="1.0" encoding="utf-8"?>
<!-- Generator: Adobe Illustrator 22.0.1, SVG Export Plug-In . SVG Version: 6.00 Build 0)  -->
<svg version="1.1" id="Layer_1" xmlns="http://www.w3.org/2000/svg" xmlns:xlink="http://www.w3.org/1999/xlink" x="0px" y="0px"
	 viewBox="0 0 186.8 88.8" style="enable-background:new 0 0 186.8 88.8;" xml:space="preserve">
<style type="text/css">
	.st0{fill:#FFFFFF;}
</style>
<path class="st0" d="M23.8,55.8c3.2,0,5.9-1.7,7.5-4.4L44,55.8c-3.9,8.5-11.6,11.9-20.5,11.9C10.7,67.7,0,58.2,0,45.1
	c0-12.7,10.6-22.5,23-22.5s22.1,9.5,22.1,21.9c0,1.5,0,3-0.2,4.5H14.9C15.8,53.3,19.6,55.8,23.8,55.8z M15.2,40.5h14.9
	c-0.6-3.9-3.5-6.1-7.4-6.1C19.2,34.3,15.9,37,15.2,40.5z M58.9,23.6l8.9,24.9h0.1l8.9-24.9h15.9L75.3,66.7H60.1L42.8,23.6H58.9z
	 M94.1,9c0-4.9,4-9,9-9c5.1,0,9,4,9,9c0,4.8-4,8.9-9,8.9C98.3,17.9,94.1,13.8,94.1,9z M110.9,23.6v43.2H95.4V23.6H110.9z
	 M136.3,36.8c-3.7,0-6.3,2.3-6.3,6.6v23.4h-15.4V23.6h15.3V29h0.2c3.3-4.4,8.2-6.3,12.4-6.3c11.4,0,15.1,9.5,15.1,17.9v26.1h-15.4
	V43.4C142.2,39.8,140,36.8,136.3,36.8z M186.3,54.5h-3h-1.6c-2.8-0.1-5-1.4-5-5V36.4h10V23.6h-10v-14h-15.4v41.5
	c0,10.7,6.9,16.3,16.8,16.3h8.6V54.5H186.3z"/>
<path class="st0" d="M2.5,79.3H0v-1.7h6.8v1.7H4.2V86H2.5V79.3z M10.9,81.7c-0.7,0-1,0.5-1,1.1V86H8.2v-8.7h1.7v3.7h0
	c0.5-0.7,1.3-0.8,1.6-0.8c1.4,0,2.1,1.1,2.1,2.3V86h-1.7v-3.2C11.9,82.2,11.6,81.7,10.9,81.7z M18.2,84.7c0.5,0,1-0.3,1.2-0.8
	l1.4,0.5c-0.4,1.1-1.4,1.7-2.6,1.7c-1.7,0-3.1-1.2-3.1-3c0-1.6,1.4-3,3-3c1.7,0,2.8,1.2,2.8,2.9c0,0.2,0,0.4,0,0.6h-4.2
	C16.9,84.3,17.5,84.7,18.2,84.7z M18.1,81.5c-0.7,0-1.2,0.6-1.2,1h2.5C19.3,82,18.9,81.5,18.1,81.5z M31.4,77.6v1.6h-3.8v1.7H31v1.6
	h-3.4v1.8h3.8V86h-5.5v-8.4H31.4z M34.2,80.2l1.4,3.8l1.4-3.8h1.8L36.5,86h-1.7l-2.3-5.7H34.2z M42.7,84.7c0.5,0,1-0.3,1.2-0.8
	l1.4,0.5c-0.4,1.1-1.4,1.7-2.6,1.7c-1.7,0-3.1-1.2-3.1-3c0-1.6,1.4-3,3-3c1.7,0,2.8,1.2,2.8,2.9c0,0.2,0,0.4,0,0.6h-4.2
	C41.4,84.3,42,84.7,42.7,84.7z M42.6,81.5c-0.7,0-1.2,0.6-1.2,1h2.5C43.7,82,43.4,81.5,42.6,81.5z M49.8,81.7c-0.7,0-1,0.5-1,1.1V86
	h-1.7v-5.7h1.7V81h0c0.4-0.8,1.4-0.9,1.6-0.9c1.5,0,2.1,1.1,2.1,2.3V86h-1.7v-3.2C50.7,82.1,50.4,81.7,49.8,81.7z M57.3,84.6
	c0.2,0,0.3,0,0.6,0v1.4c-0.4,0.1-0.8,0.1-1,0.1c-1.8,0-2.1-1.2-2.1-2.1v-2.3h-1.1v-1.4h1.1v-1.8h1.6v1.8h1.4v1.4h-1.4v2.2
	C56.5,84.3,56.7,84.6,57.3,84.6z M64.6,86h-1.7v-8.4h1.7V86z M69.5,81.7c-0.7,0-1,0.5-1,1.1V86h-1.7v-5.7h1.7V81h0
	c0.4-0.8,1.4-0.9,1.6-0.9c1.5,0,2.1,1.1,2.1,2.3V86h-1.7v-3.2C70.5,82.1,70.2,81.7,69.5,81.7z M77.1,84.6c0.2,0,0.3,0,0.6,0v1.4
	c-0.4,0.1-0.8,0.1-1,0.1c-1.8,0-2.1-1.2-2.1-2.1v-2.3h-1.1v-1.4h1.1v-1.8h1.6v1.8h1.4v1.4h-1.4v2.2C76.3,84.3,76.5,84.6,77.1,84.6z
	 M82,84.7c0.5,0,1-0.3,1.2-0.8l1.4,0.5c-0.4,1.1-1.4,1.7-2.6,1.7c-1.7,0-3.1-1.2-3.1-3c0-1.6,1.4-3,3-3c1.7,0,2.8,1.2,2.8,2.9
	c0,0.2,0,0.4,0,0.6h-4.2C80.7,84.3,81.3,84.7,82,84.7z M81.9,81.5c-0.7,0-1.2,0.6-1.2,1h2.5C83.1,82,82.7,81.5,81.9,81.5z M88.1,86
	h-1.7v-8.7h1.7V86z M91.7,86h-1.7v-8.7h1.7V86z M94.5,77.2c0.6,0,1,0.5,1,1c0,0.6-0.5,1-1,1c-0.6,0-1-0.5-1-1
	C93.5,77.7,94,77.2,94.5,77.2z M95.4,86v-5.7h-1.7V86H95.4z M100,88.8c-1.8,0-2.8-1-3-2.1l1.5-0.5c0.2,0.5,0.5,1.1,1.5,1.1
	c0.8,0,1.4-0.4,1.4-1.4v-0.7h0c-0.5,0.7-1.2,0.8-1.6,0.8c-1.6,0-2.8-1.3-2.8-2.9c0-1.4,1-2.9,2.7-2.9c0.4,0,1.1,0.1,1.7,0.8h0v-0.7
	h1.6v5.6C103.1,87.8,101.8,88.8,100,88.8z M100.1,81.6c-0.8,0-1.4,0.6-1.4,1.4c0,0.9,0.6,1.4,1.4,1.4c0.8,0,1.4-0.6,1.4-1.4
	C101.5,82.2,100.9,81.6,100.1,81.6z M107.9,84.7c0.5,0,1-0.3,1.2-0.8l1.4,0.5c-0.4,1.1-1.4,1.7-2.6,1.7c-1.7,0-3.1-1.2-3.1-3
	c0-1.6,1.4-3,3-3c1.7,0,2.8,1.2,2.8,2.9c0,0.2,0,0.4,0,0.6h-4.2C106.5,84.3,107.2,84.7,107.9,84.7z M107.7,81.5
	c-0.7,0-1.2,0.6-1.2,1h2.5C108.9,82,108.6,81.5,107.7,81.5z M114.9,81.7c-0.7,0-1,0.5-1,1.1V86h-1.7v-5.7h1.7V81h0
	c0.4-0.8,1.4-0.9,1.6-0.9c1.5,0,2.1,1.1,2.1,2.3V86h-1.7v-3.2C115.9,82.1,115.6,81.7,114.9,81.7z M119.2,83.1c0-1.7,1.4-3,3.1-3
	c1.2,0,2.5,0.6,2.8,1.9l-1.5,0.5c-0.1-0.4-0.6-0.9-1.3-0.9c-0.7,0-1.4,0.5-1.4,1.4c0,0.8,0.6,1.5,1.4,1.5c0.7,0,1.2-0.5,1.3-0.9
	l1.5,0.5c-0.4,1.3-1.6,2-2.9,2C120.4,86.1,119.2,84.8,119.2,83.1z M129.4,84.7c0.5,0,1-0.3,1.2-0.8l1.4,0.5
	c-0.4,1.1-1.4,1.7-2.6,1.7c-1.7,0-3.1-1.2-3.1-3c0-1.6,1.4-3,3-3c1.7,0,2.8,1.2,2.8,2.9c0,0.2,0,0.4,0,0.6H128
	C128.1,84.3,128.7,84.7,129.4,84.7z M129.2,81.5c-0.7,0-1.2,0.6-1.2,1h2.5C130.4,82,130.1,81.5,129.2,81.5z M140.1,83h-1.3v3h-1.7
	v-8.4h3.1c1.7,0,3,0.9,3,2.7C143.2,82.1,141.9,83,140.1,83z M140,79.2h-1.2v2.2h1.2c0.7,0,1.4-0.3,1.4-1.1
	C141.4,79.5,140.8,79.2,140,79.2z M146.4,86h-1.7v-8.7h1.7V86z M148,84.4L148,84.4c0-1.4,1.4-1.8,2.5-1.8h0.6c0.3,0,0.5-0.2,0.5-0.4
	c0-0.4-0.3-0.7-0.9-0.7c-0.5,0-0.9,0.3-1,0.8l-1.5-0.3c0.2-1.2,1.4-1.8,2.6-1.8c1.4,0,2.5,0.8,2.5,2.3V86h-1.5v-0.7l0,0
	c-0.4,0.6-1.1,0.8-1.7,0.8C148.9,86.1,148,85.4,148,84.4z M151.5,83.7v-0.1h-1c-0.3,0-0.8,0.2-0.8,0.7c0,0.4,0.3,0.6,0.7,0.6
	C151.1,84.8,151.5,84.3,151.5,83.7z M158.1,84.6c0.2,0,0.3,0,0.6,0v1.4c-0.4,0.1-0.8,0.1-1,0.1c-1.8,0-2.1-1.2-2.1-2.1v-2.3h-1.1
	v-1.4h1.1v-1.8h1.6v1.8h1.4v1.4h-1.4v2.2C157.3,84.3,157.5,84.6,158.1,84.6z M162.6,81.7V86H161v-4.3h-1.1v-1.4h1.1v-0.6
	c0-1.2,0.6-2.5,2.2-2.5c0.2,0,0.6,0,1,0.1v1.4c-0.2-0.1-0.5-0.1-0.5-0.1c-0.7,0-1,0.3-1,1v0.7h1.5v1.4H162.6z M168.2,80.1
	c1.7,0,3.1,1.3,3.1,3c0,1.7-1.4,3-3.1,3c-1.7,0-3.1-1.3-3.1-3C165,81.4,166.4,80.1,168.2,80.1z M168.2,84.6c0.8,0,1.4-0.6,1.4-1.5
	c0-0.9-0.6-1.5-1.4-1.5c-0.8,0-1.4,0.6-1.4,1.5C166.8,84,167.4,84.6,168.2,84.6z M175.9,81.8c-0.8,0-1.4,0.6-1.4,1.6V86h-1.6v-5.7
	h1.6v0.8h0c0.3-0.7,0.9-0.9,1.5-0.9c0.1,0,0.3,0,0.5,0.1v1.6C176.2,81.8,176,81.8,175.9,81.8z M183.1,82.8V86h-1.7v-3.2
	c0-0.6-0.2-1.1-0.9-1.1c-0.7,0-1,0.5-1,1.1V86h-1.7v-5.7h1.6V81h0c0.3-0.6,1-0.9,1.7-0.9c0.7,0,1.3,0.3,1.7,0.9
	c0.5-0.6,1.1-0.9,1.9-0.9c1.4,0,2,1,2,2.3V86h-1.7v-3.2c0-0.6-0.2-1.1-0.9-1.1C183.5,81.7,183.1,82.1,183.1,82.8z"/>
</svg>
