<?xml version="1.0" encoding="utf-8"?>
<!-- Generator: Adobe Illustrator 22.0.1, SVG Export Plug-In . SVG Version: 6.00 Build 0)  -->
<svg version="1.1" id="Layer_1" xmlns="http://www.w3.org/2000/svg" xmlns:xlink="http://www.w3.org/1999/xlink" x="0px" y="0px"
	 viewBox="0 0 186.7 67.7" style="enable-background:new 0 0 186.7 67.7;" xml:space="preserve">
<style type="text/css">
	.st0{fill:#24B790;}
</style>
<path class="st0" d="M23.8,55.8c3.2,0,5.9-1.7,7.5-4.4L44,55.8c-3.9,8.5-11.6,11.9-20.5,11.9C10.7,67.7,0,58.2,0,45.1
	c0-12.7,10.6-22.5,23-22.5s22.1,9.5,22.1,21.9c0,1.5,0,3-0.2,4.5H14.9C15.8,53.3,19.6,55.8,23.8,55.8z M15.2,40.5h14.9
	c-0.6-3.9-3.5-6.1-7.4-6.1C19.2,34.3,15.9,37,15.2,40.5z M58.9,23.6l8.9,24.9h0.1l8.9-24.9h15.9L75.3,66.7H60.1L42.8,23.6H58.9z
	 M94.1,9c0-4.9,4-9,9-9c5.1,0,9,4,9,9c0,4.8-4,8.9-9,8.9C98.3,17.9,94.1,13.8,94.1,9z M110.9,23.6v43.2H95.4V23.6H110.9z
	 M136.3,36.8c-3.7,0-6.3,2.3-6.3,6.6v23.4h-15.4V23.6h15.3V29h0.2c3.3-4.4,8.2-6.3,12.4-6.3c11.4,0,15.1,9.5,15.1,17.9v26.1h-15.4
	V43.4C142.2,39.8,140,36.8,136.3,36.8z M186.3,54.5h-3h-1.6c-2.8-0.1-5-1.4-5-5V36.4h10V23.6h-10v-14h-15.4v41.5
	c0,10.7,6.9,16.3,16.8,16.3h8.6V54.5H186.3z"/>
</svg>
