<?xml version="1.0" encoding="utf-8"?>
<!-- Generator: Adobe Illustrator 22.0.1, SVG Export Plug-In . SVG Version: 6.00 Build 0)  -->
<svg version="1.1" id="Layer_1" xmlns="http://www.w3.org/2000/svg" xmlns:xlink="http://www.w3.org/1999/xlink" x="0px" y="0px"
	 viewBox="0 0 634.8 240.9" style="enable-background:new 0 0 634.8 240.9;" xml:space="preserve">
<style type="text/css">
	.st0{fill:#24B790;}
	.st1{fill:#222426;}
</style>
<g>
	<g>
		<path class="st0" d="M145.5,132.8c7.5,0,14-4,17.9-10.4l30.2,10.6c-9.2,20.2-27.7,28.3-48.9,28.3c-30.4,0-55.8-22.7-55.8-53.9
			c0-30.2,25.2-53.5,54.8-53.5s52.5,22.5,52.5,52.1c0,3.7,0,7.1-0.6,10.8h-71.2C126.5,126.8,135.5,132.8,145.5,132.8z M125.1,96.4
			h35.6c-1.3-9.2-8.3-14.6-17.5-14.6C134.7,81.8,126.9,88.1,125.1,96.4z"/>
		<path class="st0" d="M229.3,56.2l21.2,59.3h0.2l21.2-59.3h37.9l-41.4,102.8H232L190.8,56.2H229.3z"/>
		<path class="st0" d="M313.1,21.4c0-11.7,9.6-21.4,21.4-21.4c12.1,0,21.4,9.6,21.4,21.4c0,11.5-9.4,21.2-21.4,21.2
			C322.9,42.5,313.1,32.9,313.1,21.4z M353,56.2v102.8H316V56.2H353z"/>
		<path class="st0" d="M413.5,87.6c-8.9,0-15,5.6-15,15.8v55.6h-36.6V56.2h36.4v12.9h0.4c7.9-10.6,19.6-15,29.4-15
			c27.1,0,36,22.7,36,42.7v62.2h-36.6v-55.6C427.6,94.9,422.4,87.6,413.5,87.6z"/>
	</g>
	<path class="st0" d="M532.5,129.8h-7.1h-3.9c-6.7-0.3-11.9-3.3-11.9-11.9V86.6h23.9V56.2h-23.9V22.9h-36.6v98.9
		c0,25.4,16.4,38.9,40,38.9h20.5v-30.8H532.5z"/>
</g>
<g>
	<path class="st1" d="M13.2,205h3.1l13.2,29.2h-3.5l-3.4-7.7H6.8l-3.4,7.7H0L13.2,205z M21.3,223.6l-6.6-14.8l-6.6,14.8H21.3z"/>
	<path class="st1" d="M46.1,205.2H58c6.9,0,11.1,4.1,11.1,10v0.1c0,6.7-5.2,10.2-11.7,10.2h-4.8v8.7h-6.4V205.2z M57.6,219.8
		c3.2,0,5-1.9,5-4.4v-0.1c0-2.9-2-4.4-5.2-4.4h-4.9v8.9H57.6z"/>
	<path class="st1" d="M71,227.8L71,227.8c0-4.9,3.7-7.2,8.9-7.2c2.2,0,3.8,0.4,5.4,0.9v-0.4c0-2.6-1.6-4.1-4.8-4.1
		c-2.4,0-4.1,0.5-6.1,1.2l-1.6-4.8c2.4-1.1,4.8-1.8,8.6-1.8c3.4,0,5.9,0.9,7.5,2.5c1.7,1.7,2.4,4.1,2.4,7.1v12.9h-6.1v-2.4
		c-1.5,1.7-3.6,2.8-6.7,2.8C74.4,234.6,71,232.2,71,227.8z M85.4,226.3v-1.1c-1.1-0.5-2.5-0.8-4-0.8c-2.7,0-4.3,1.1-4.3,3.1v0.1
		c0,1.7,1.4,2.7,3.4,2.7C83.4,230.2,85.4,228.6,85.4,226.3z"/>
	<path class="st1" d="M97.2,227.9v-10.5h-2.6V212h2.6v-5.7h6.3v5.7h5.2v5.4h-5.2v9.5c0,1.4,0.6,2.2,2,2.2c1.2,0,2.2-0.3,3.1-0.8v5
		c-1.3,0.8-2.9,1.3-5,1.3C99.8,234.5,97.2,233,97.2,227.9z"/>
	<path class="st1" d="M112.9,212h6.3v4.5c1.3-3.1,3.4-5,7.1-4.9v6.6h-0.3c-4.2,0-6.7,2.5-6.7,7.8v8.2h-6.3V212z"/>
	<path class="st1" d="M128.1,223.2L128.1,223.2c0-6.5,5.1-11.6,12-11.6c6.9,0,12,5.1,12,11.5v0.1c0,6.4-5.1,11.5-12,11.5
		C133.2,234.7,128.1,229.6,128.1,223.2z M145.9,223.2L145.9,223.2c0-3.4-2.4-6.2-5.8-6.2c-3.6,0-5.8,2.8-5.8,6v0.1
		c0,3.3,2.4,6.1,5.8,6.1C143.7,229.2,145.9,226.5,145.9,223.2z"/>
	<path class="st1" d="M156.2,212h6.3v3.1c1.4-1.9,3.3-3.6,6.5-3.6c4.8,0,7.5,3.1,7.5,8.2v14.4h-6.3v-12.4c0-3-1.4-4.5-3.8-4.5
		c-2.4,0-3.9,1.5-3.9,4.5v12.4h-6.3V212z"/>
	<path class="st1" d="M201,211.1h-8.8v-5.9h24v5.9h-8.8v23.1H201V211.1z"/>
	<path class="st1" d="M214.6,223.2L214.6,223.2c0-6.4,4.5-11.6,11-11.6c7.4,0,10.8,5.8,10.8,12c0,0.5,0,1.1-0.1,1.7h-15.4
		c0.6,2.9,2.6,4.3,5.4,4.3c2.1,0,3.6-0.7,5.4-2.3l3.6,3.2c-2.1,2.6-5,4.1-9.1,4.1C219.5,234.7,214.6,230,214.6,223.2z M230.2,221.3
		c-0.4-2.8-2-4.7-4.7-4.7c-2.6,0-4.3,1.9-4.8,4.7H230.2z"/>
	<path class="st1" d="M239.5,223.2L239.5,223.2c0-6.4,4.8-11.6,11.6-11.6c4.2,0,6.8,1.4,8.9,3.7l-3.8,4.1c-1.4-1.5-2.8-2.4-5-2.4
		c-3.1,0-5.4,2.8-5.4,6v0.1c0,3.4,2.2,6.1,5.6,6.1c2.1,0,3.6-0.9,5.1-2.4l3.7,3.7c-2.2,2.4-4.6,4.1-9.1,4.1
		C244.4,234.7,239.5,229.5,239.5,223.2z"/>
	<path class="st1" d="M263.8,203.9h6.3v11.2c1.4-1.9,3.3-3.6,6.5-3.6c4.8,0,7.5,3.1,7.5,8.2v14.4h-6.3v-12.4c0-3-1.4-4.5-3.8-4.5
		s-3.9,1.5-3.9,4.5v12.4h-6.3V203.9z"/>
	<path class="st1" d="M289.2,212h6.3v3.1c1.4-1.9,3.3-3.6,6.5-3.6c4.8,0,7.5,3.1,7.5,8.2v14.4h-6.3v-12.4c0-3-1.4-4.5-3.8-4.5
		s-3.9,1.5-3.9,4.5v12.4h-6.3V212z"/>
	<path class="st1" d="M313.5,223.2L313.5,223.2c0-6.5,5.1-11.6,12-11.6c6.9,0,12,5.1,12,11.5v0.1c0,6.4-5.1,11.5-12,11.5
		C318.5,234.7,313.5,229.6,313.5,223.2z M331.2,223.2L331.2,223.2c0-3.4-2.4-6.2-5.8-6.2c-3.6,0-5.8,2.8-5.8,6v0.1
		c0,3.3,2.4,6.1,5.8,6.1C329.1,229.2,331.2,226.5,331.2,223.2z"/>
	<path class="st1" d="M341.9,203.9h6.3v30.2h-6.3V203.9z"/>
	<path class="st1" d="M352.6,223.2L352.6,223.2c0-6.5,5.1-11.6,12-11.6c6.9,0,12,5.1,12,11.5v0.1c0,6.4-5.1,11.5-12,11.5
		C357.7,234.7,352.6,229.6,352.6,223.2z M370.4,223.2L370.4,223.2c0-3.4-2.4-6.2-5.8-6.2c-3.6,0-5.8,2.8-5.8,6v0.1
		c0,3.3,2.4,6.1,5.8,6.1C368.2,229.2,370.4,226.5,370.4,223.2z"/>
	<path class="st1" d="M380.9,238.5l2.2-4.7c2.3,1.3,4.6,2,7.5,2c4.3,0,6.3-2.1,6.3-6v-1.1c-1.9,2.2-3.9,3.6-7.2,3.6
		c-5.2,0-9.8-3.8-9.8-10.3v-0.1c0-6.6,4.8-10.3,9.8-10.3c3.4,0,5.5,1.4,7.2,3.3V212h6.3v17.2c0,4-1,6.9-2.8,8.7
		c-2.1,2.1-5.3,3-9.6,3C387.1,240.9,383.7,240,380.9,238.5z M396.8,222L396.8,222c0-3.1-2.4-5.2-5.4-5.2c-3.1,0-5.4,2.1-5.4,5.1v0.1
		c0,3.1,2.3,5.1,5.4,5.1C394.5,227.1,396.8,225,396.8,222z"/>
	<path class="st1" d="M408,239.4l2.1-4.6c0.8,0.5,1.9,0.9,2.7,0.9c1.1,0,1.7-0.3,2.2-1.4l-8.7-22.3h6.7l5,15.1l4.8-15.1h6.5
		l-8.5,22.7c-1.7,4.5-3.5,6.2-7.3,6.2C411.3,240.9,409.6,240.3,408,239.4z"/>
	<path class="st1" d="M444.7,219.8L444.7,219.8c0-8.3,6.1-15.1,14.6-15.1c5.3,0,8.4,1.9,11.3,4.6l-2.2,2.4c-2.4-2.3-5.2-4-9.1-4
		c-6.4,0-11.2,5.2-11.2,11.9v0.1c0,6.7,4.8,12,11.2,12c4,0,6.6-1.5,9.4-4.2l2.2,2.1c-3,3.1-6.3,5.1-11.6,5.1
		C450.8,234.7,444.7,228.1,444.7,219.8z"/>
	<path class="st1" d="M473.8,223.6L473.8,223.6c0-6.1,4.7-11.3,11.2-11.3c6.4,0,11.1,5,11.1,11.1v0.1c0,6-4.8,11.2-11.2,11.2
		C478.5,234.7,473.8,229.6,473.8,223.6z M492.8,223.6L492.8,223.6c0-4.7-3.4-8.4-7.9-8.4c-4.6,0-7.8,3.8-7.8,8.3v0.1
		c0,4.6,3.4,8.3,7.9,8.3C489.6,231.8,492.8,228.1,492.8,223.6z"/>
	<path class="st1" d="M501.4,212.8h3.2v3.6c1.4-2.1,3.3-4.1,6.9-4.1c3.5,0,5.7,1.9,6.9,4.3c1.5-2.4,3.8-4.3,7.5-4.3
		c4.9,0,7.9,3.3,7.9,8.6v13.2h-3.2v-12.5c0-4.1-2.1-6.5-5.5-6.5c-3.2,0-5.9,2.4-5.9,6.6v12.3h-3.1v-12.6c0-4-2.1-6.4-5.5-6.4
		s-6,2.8-6,6.7v12.2h-3.2V212.8z"/>
	<path class="st1" d="M540.3,212.8h3.2v4.3c1.7-2.6,4.3-4.8,8.2-4.8c5.1,0,10.2,4.1,10.2,11.1v0.1c0,7-5,11.1-10.2,11.1
		c-4,0-6.5-2.2-8.2-4.6v10.7h-3.2V212.8z M558.7,223.5L558.7,223.5c0-5.1-3.5-8.4-7.5-8.4c-4,0-7.7,3.4-7.7,8.2v0.1
		c0,5,3.8,8.3,7.7,8.3C555.3,231.8,558.7,228.7,558.7,223.5z"/>
	<path class="st1" d="M565.8,228L565.8,228c0-4.7,3.7-7.1,9.1-7.1c2.7,0,4.6,0.4,6.5,0.9v-0.7c0-3.8-2.3-5.8-6.3-5.8
		c-2.5,0-4.5,0.6-6.5,1.5l-1-2.6c2.4-1.1,4.6-1.8,7.8-1.8c3,0,5.4,0.8,6.9,2.4c1.5,1.5,2.2,3.6,2.2,6.3v13.1h-3.1V231
		c-1.5,1.9-3.9,3.6-7.7,3.6C569.8,234.6,565.8,232.3,565.8,228z M581.5,226.3v-2c-1.6-0.5-3.6-0.9-6.2-0.9c-4,0-6.2,1.7-6.2,4.3v0.1
		c0,2.7,2.5,4.3,5.4,4.3C578.3,232,581.5,229.7,581.5,226.3z"/>
	<path class="st1" d="M591,212.8h3.2v3.7c1.4-2.3,3.6-4.2,7.3-4.2c5.2,0,8.2,3.5,8.2,8.6v13.3h-3.2v-12.5c0-4-2.2-6.5-5.9-6.5
		c-3.7,0-6.4,2.7-6.4,6.7v12.2H591V212.8z"/>
	<path class="st1" d="M614.2,239.8l1.1-2.5c1,0.5,2,0.8,3.4,0.8c1.9,0,3.1-1,4.4-4l-9.7-21.3h3.5l7.8,17.8l6.9-17.8h3.4l-9,22.1
		c-1.8,4.4-3.9,6-7.1,6C616.9,240.9,615.6,240.5,614.2,239.8z"/>
</g>
</svg>
