<?xml version="1.0" encoding="utf-8"?>
<!-- Generator: Adobe Illustrator 23.1.1, SVG Export Plug-In . SVG Version: 6.00 Build 0)  -->
<svg version="1.1" id="Layer_1" xmlns="http://www.w3.org/2000/svg" xmlns:xlink="http://www.w3.org/1999/xlink" x="0px" y="0px"
	 viewBox="0 0 541.8 170" style="enable-background:new 0 0 541.8 170;" xml:space="preserve">
<g>
	<path d="M0,105.2c0-37.4,27.4-64.8,66.3-64.8s65.8,27.4,65.8,64.8v10.5h-101c4,18,17.7,27.4,35.2,27.4c13.2,0,22.9-3.7,29.2-11.7
		h31.7c-9.2,23.4-31.7,38.6-60.8,38.6C27.4,170,0,142.6,0,105.2z M100.7,92C96,75.5,82.5,67.3,66.3,67.3c-16.7,0-29.7,8.5-34.4,24.7
		H100.7z"/>
	<path d="M125.4,43.6h32.4l34.2,96l34.2-96h31.7l-48.4,123.2h-35.6L125.4,43.6z"/>
	<path d="M266,43.6h29.7v123.2H266V43.6z"/>
	<path d="M307.4,102.7c0-41.1,24.4-62.3,60.8-62.3c36.4,0,60.8,20.9,60.8,62.3v64.1h-29.7v-64.1c0-23.4-12.5-34.7-31.2-34.7
		s-31.2,11.2-31.2,34.7v64.1h-29.7V102.7z"/>
	<path d="M441.1,119.4V0h29.7v43.6h63.6v26.9h-63.6v48.9c0,16.5,8.5,22.9,20.7,22.9c12.2,0,20.7-6.2,20.7-22.9v-3.2h29.7v3.2
		c0,34.2-20.4,50.6-50.4,50.6C461.5,170,441.1,153.6,441.1,119.4z"/>
</g>
<circle cx="281.1" cy="14.8" r="15"/>
</svg>
